<?xml version="1.0" encoding="UTF-8"?>
<svg xmlns="http://www.w3.org/2000/svg" xmlns:xlink="http://www.w3.org/1999/xlink" width="240px" height="109px" viewBox="0 0 239 109" version="1.1">
<g id="surface1">
<path style=" stroke:none;fill-rule:nonzero;fill:rgb(94.901961%,94.901961%,94.901961%);fill-opacity:1;" d="M 230.339844 50.917969 C 230.339844 56.84375 225.542969 61.648438 219.628906 61.648438 C 213.714844 61.648438 208.917969 56.84375 208.917969 50.917969 C 208.917969 44.988281 213.714844 40.1875 219.628906 40.1875 C 225.542969 40.1875 230.339844 44.988281 230.339844 50.917969 Z M 230.339844 50.917969 "/>
<path style=" stroke:none;fill-rule:nonzero;fill:rgb(90.196078%,90.196078%,90.196078%);fill-opacity:1;" d="M 222.445312 50.917969 C 222.445312 52.476562 221.183594 53.742188 219.628906 53.742188 C 218.070312 53.742188 216.808594 52.476562 216.808594 50.917969 C 216.808594 49.355469 218.070312 48.09375 219.628906 48.09375 C 221.183594 48.09375 222.445312 49.355469 222.445312 50.917969 Z M 222.445312 50.917969 "/>
<path style=" stroke:none;fill-rule:nonzero;fill:rgb(80%,80%,80%);fill-opacity:1;" d="M 219.113281 50.976562 C 220.300781 51.945312 220.664062 53.476562 220.441406 54.953125 C 220.167969 56.574219 219.332031 58.042969 218.074219 59.097656 C 216.664062 60.355469 214.941406 61.207031 213.28125 62.074219 C 211.753906 62.855469 210.285156 63.75 208.890625 64.746094 C 203.546875 68.636719 199.507812 74.179688 197.199219 80.363281 C 194.890625 86.535156 194.273438 93.539062 196.027344 99.9375 C 196.894531 103.105469 198.648438 106.519531 201.914062 107.710938 C 204.519531 108.660156 208.078125 108.046875 209.40625 105.359375 C 210.828125 102.46875 208.839844 99.21875 206.28125 97.785156 C 202.960938 95.925781 198.996094 97.285156 196.011719 99.167969 C 192.722656 101.238281 190.082031 104.210938 186.648438 106.070312 C 185.105469 106.933594 183.386719 107.433594 181.621094 107.539062 C 180 107.605469 178.378906 107.351562 176.855469 106.800781 C 173.6875 105.644531 170.960938 103.527344 169.058594 100.738281 C 166.878906 97.5625 165.902344 93.671875 165.722656 89.859375 C 165.324219 81.332031 168.6875 73.351562 171.386719 65.441406 C 172.835938 61.320312 173.925781 57.082031 174.632812 52.773438 C 175.308594 48.441406 175.550781 44.054688 175.351562 39.671875 C 175.171875 35.800781 174.792969 31.75 173.085938 28.214844 C 171.585938 25.105469 168.84375 22.558594 165.378906 21.917969 C 163.816406 21.609375 162.195312 21.796875 160.746094 22.449219 C 160.25 22.675781 160.679688 23.40625 161.171875 23.183594 C 164.238281 21.78125 167.863281 23.144531 170.128906 25.40625 C 172.773438 28.050781 173.746094 31.953125 174.179688 35.554688 C 175.148438 44.09375 174.382812 52.738281 171.933594 60.96875 C 169.578125 68.976562 165.878906 76.648438 165.027344 85.035156 C 164.636719 88.863281 164.835938 92.820312 166.058594 96.492188 C 167.105469 99.757812 169.070312 102.65625 171.714844 104.839844 C 174.207031 106.859375 177.273438 108.234375 180.5 108.386719 C 184.125 108.558594 187.300781 106.941406 190.113281 104.789062 C 193.121094 102.480469 195.890625 99.636719 199.539062 98.34375 C 201.199219 97.753906 203.09375 97.480469 204.800781 98.046875 C 206.265625 98.546875 207.507812 99.550781 208.3125 100.875 C 209.050781 102.109375 209.324219 103.652344 208.648438 104.980469 C 208.011719 106.226562 206.773438 106.949219 205.429688 107.195312 C 204.003906 107.449219 202.539062 107.199219 201.277344 106.488281 C 199.804688 105.648438 198.726562 104.234375 197.972656 102.738281 C 196.46875 99.761719 195.960938 96.214844 195.886719 92.90625 C 195.820312 89.679688 196.230469 86.457031 197.113281 83.347656 C 198.863281 77.0625 202.394531 71.417969 207.28125 67.101562 C 208.515625 66.027344 209.832031 65.058594 211.222656 64.199219 C 212.738281 63.261719 214.355469 62.511719 215.902344 61.628906 C 217.421875 60.761719 218.921875 59.722656 219.96875 58.289062 C 220.863281 57.066406 221.34375 55.585938 221.347656 54.070312 C 221.378906 52.65625 220.777344 51.300781 219.710938 50.378906 C 219.292969 50.035156 218.691406 50.632812 219.113281 50.976562 Z M 219.113281 50.976562 "/>
<path style=" stroke:none;fill-rule:nonzero;fill:rgb(24.705882%,23.921569%,33.72549%);fill-opacity:1;" d="M 119.128906 100.332031 C 122.875 102.757812 127.207031 104.121094 131.664062 104.269531 C 131.582031 104.460938 131.496094 104.644531 131.394531 104.824219 C 130.875 105.78125 130.144531 106.609375 129.253906 107.238281 C 127.105469 108.753906 124.292969 108.941406 121.960938 107.730469 C 119.628906 106.515625 118.164062 104.105469 118.164062 101.472656 L 118.164062 100.332031 Z M 119.128906 100.332031 "/>
<path style=" stroke:none;fill-rule:nonzero;fill:rgb(24.705882%,23.921569%,33.72549%);fill-opacity:1;" d="M 145.417969 100.667969 L 145.417969 101.472656 C 145.417969 104.695312 143.238281 107.507812 140.121094 108.304688 C 137.003906 109.101562 133.742188 107.675781 132.203125 104.847656 C 132.101562 104.660156 132.007812 104.472656 131.925781 104.277344 C 132.132812 104.285156 132.332031 104.285156 132.539062 104.285156 C 137.082031 104.292969 141.539062 103.039062 145.417969 100.667969 Z M 145.417969 100.667969 "/>
<path style=" stroke:none;fill-rule:nonzero;fill:rgb(24.705882%,23.921569%,33.72549%);fill-opacity:1;" d="M 154.898438 15.5625 C 154.6875 15.53125 154.472656 15.511719 154.257812 15.496094 C 156.691406 21.117188 156.859375 27.464844 154.730469 33.207031 C 154.941406 33.179688 155.15625 33.144531 155.367188 33.105469 C 159.628906 32.277344 162.667969 28.484375 162.550781 24.136719 C 162.4375 19.785156 159.199219 16.160156 154.898438 15.5625 Z M 154.898438 15.5625 "/>
<path style=" stroke:none;fill-rule:nonzero;fill:rgb(24.705882%,23.921569%,33.72549%);fill-opacity:1;" d="M 110.820312 15.496094 C 110.605469 15.511719 110.394531 15.53125 110.179688 15.5625 C 105.878906 16.160156 102.644531 19.785156 102.527344 24.136719 C 102.410156 28.484375 105.449219 32.277344 109.714844 33.105469 C 109.925781 33.144531 110.136719 33.179688 110.351562 33.207031 C 108.21875 27.464844 108.386719 21.117188 110.820312 15.496094 Z M 110.820312 15.496094 "/>
<path style=" stroke:none;fill-rule:nonzero;fill:rgb(24.705882%,23.921569%,33.72549%);fill-opacity:1;" d="M 154.898438 15.5625 C 150.085938 4.050781 137.351562 -1.9375 125.4375 1.722656 C 113.527344 5.378906 106.324219 17.484375 108.777344 29.722656 C 111.230469 41.960938 122.542969 50.339844 134.941406 49.105469 C 147.335938 47.867188 156.777344 37.417969 156.777344 24.9375 C 156.777344 21.71875 156.136719 18.53125 154.898438 15.5625 Z M 154.730469 33.207031 C 150.457031 44.714844 138.121094 51.050781 126.296875 47.8125 C 114.476562 44.570312 107.078125 32.820312 109.25 20.734375 C 111.421875 8.648438 122.441406 0.222656 134.648438 1.316406 C 146.859375 2.40625 156.214844 12.65625 156.214844 24.9375 C 156.214844 27.761719 155.710938 30.558594 154.730469 33.207031 Z M 154.730469 33.207031 "/>
<path style=" stroke:none;fill-rule:nonzero;fill:rgb(24.705882%,23.921569%,33.72549%);fill-opacity:1;" d="M 144.941406 19.429688 L 120.140625 19.429688 C 117.414062 19.429688 115.207031 21.644531 115.207031 24.371094 C 115.207031 27.101562 117.414062 29.3125 120.140625 29.3125 L 144.941406 29.3125 C 147.664062 29.3125 149.871094 27.101562 149.871094 24.371094 C 149.871094 21.644531 147.664062 19.429688 144.941406 19.429688 Z M 144.941406 19.429688 "/>
<path style=" stroke:none;fill-rule:nonzero;fill:rgb(24.705882%,23.921569%,33.72549%);fill-opacity:1;" d="M 132.539062 54.023438 C 118.757812 54.027344 107.503906 65.058594 107.191406 78.863281 C 106.882812 92.667969 117.628906 104.195312 131.394531 104.824219 C 131.664062 104.835938 131.933594 104.847656 132.203125 104.847656 C 132.316406 104.851562 132.425781 104.851562 132.539062 104.851562 C 146.546875 104.851562 157.90625 93.472656 157.90625 79.4375 C 157.90625 65.402344 146.546875 54.023438 132.539062 54.023438 Z M 145.417969 100.667969 C 141.539062 103.039062 137.082031 104.292969 132.539062 104.285156 C 132.332031 104.285156 132.132812 104.285156 131.925781 104.277344 C 131.835938 104.277344 131.75 104.277344 131.664062 104.269531 C 119.351562 103.839844 109.21875 94.429688 107.859375 82.164062 C 106.5 69.894531 114.328125 58.488281 126.246094 55.367188 C 138.164062 52.242188 150.566406 58.351562 155.371094 69.714844 C 160.179688 81.078125 155.941406 94.253906 145.417969 100.667969 Z M 145.417969 100.667969 "/>
<path style=" stroke:none;fill-rule:nonzero;fill:rgb(24.705882%,23.921569%,33.72549%);fill-opacity:1;" d="M 150.34375 73.179688 L 139.257812 73.179688 C 137.648438 73.179688 136.34375 71.871094 136.34375 70.261719 C 136.34375 68.648438 137.648438 67.339844 139.257812 67.339844 L 150.34375 67.339844 C 151.949219 67.339844 153.253906 68.648438 153.253906 70.261719 C 153.253906 71.871094 151.949219 73.179688 150.34375 73.179688 Z M 150.34375 73.179688 "/>
<path style=" stroke:none;fill-rule:nonzero;fill:rgb(94.901961%,94.901961%,94.901961%);fill-opacity:1;" d="M 141.472656 70.261719 C 141.472656 71.078125 140.8125 71.742188 139.996094 71.742188 C 139.179688 71.742188 138.519531 71.078125 138.519531 70.261719 C 138.519531 69.441406 139.179688 68.777344 139.996094 68.777344 C 140.8125 68.777344 141.472656 69.441406 141.472656 70.261719 Z M 141.472656 70.261719 "/>
<path style=" stroke:none;fill-rule:nonzero;fill:rgb(94.901961%,94.901961%,94.901961%);fill-opacity:1;" d="M 146.277344 70.261719 C 146.277344 71.078125 145.617188 71.742188 144.800781 71.742188 C 143.984375 71.742188 143.320312 71.078125 143.320312 70.261719 C 143.320312 69.441406 143.984375 68.777344 144.800781 68.777344 C 145.617188 68.777344 146.277344 69.441406 146.277344 70.261719 Z M 146.277344 70.261719 "/>
<path style=" stroke:none;fill-rule:nonzero;fill:rgb(25.882353%,66.666667%,22.352941%);fill-opacity:1;" d="M 151.082031 70.261719 C 151.082031 71.078125 150.417969 71.742188 149.601562 71.742188 C 148.789062 71.742188 148.125 71.078125 148.125 70.261719 C 148.125 69.441406 148.789062 68.777344 149.601562 68.777344 C 150.417969 68.777344 151.082031 69.441406 151.082031 70.261719 Z M 151.082031 70.261719 "/>
<path style=" stroke:none;fill-rule:nonzero;fill:rgb(94.901961%,94.901961%,94.901961%);fill-opacity:1;" d="M 46.398438 107.785156 C 48.933594 105.640625 50.472656 102.25 50.066406 98.949219 C 49.664062 95.648438 47.164062 92.617188 43.921875 91.914062 C 40.675781 91.214844 36.980469 93.15625 35.992188 96.328125 C 35.453125 90.207031 34.828125 83.832031 31.578125 78.621094 C 28.636719 73.898438 23.546875 70.523438 18.023438 69.917969 C 12.503906 69.316406 6.691406 71.597656 3.25 75.960938 C -0.191406 80.328125 -1.035156 86.675781 1.375 91.6875 C 3.152344 95.378906 6.425781 98.125 9.851562 100.359375 C 20.792969 107.492188 34.363281 109.902344 47.273438 108 Z M 46.398438 107.785156 "/>
<path style=" stroke:none;fill-rule:nonzero;fill:rgb(100%,100%,100%);fill-opacity:1;" d="M 8.707031 71.722656 C 13.261719 75.441406 17.441406 79.597656 21.183594 84.136719 C 24.925781 88.667969 28.222656 93.554688 31.023438 98.722656 C 32.589844 101.625 33.996094 104.609375 35.234375 107.660156 C 35.488281 108.28125 34.480469 108.554688 34.230469 107.9375 C 32.035156 102.554688 29.3125 97.398438 26.113281 92.546875 C 22.925781 87.710938 19.277344 83.199219 15.222656 79.070312 C 12.929688 76.734375 10.507812 74.527344 7.972656 72.460938 C 7.453125 72.035156 8.191406 71.300781 8.707031 71.722656 Z M 8.707031 71.722656 "/>
<path style=" stroke:none;fill-rule:nonzero;fill:rgb(18.431373%,18.039216%,25.490196%);fill-opacity:1;" d="M 54.277344 9.882812 C 54.277344 14.71875 50.363281 18.636719 45.539062 18.636719 C 40.714844 18.636719 36.800781 14.71875 36.800781 9.882812 C 36.800781 5.046875 40.714844 1.128906 45.539062 1.128906 C 50.363281 1.128906 54.277344 5.046875 54.277344 9.882812 Z M 54.277344 9.882812 "/>
<path style=" stroke:none;fill-rule:nonzero;fill:rgb(100%,72.156863%,72.156863%);fill-opacity:1;" d="M 78.125 41.9375 C 77.957031 42.1875 77.753906 42.414062 77.519531 42.605469 C 76.835938 43.171875 75.949219 43.414062 75.074219 43.28125 C 74.199219 43.144531 73.425781 42.644531 72.945312 41.902344 C 72.890625 41.816406 72.839844 41.726562 72.792969 41.636719 L 59.027344 40.304688 C 56.792969 40.082031 54.972656 38.417969 54.546875 36.210938 L 53.765625 32.085938 L 59.140625 31.246094 L 60.105469 34.554688 L 73.527344 37.855469 C 73.632812 37.765625 73.742188 37.679688 73.859375 37.605469 C 75.09375 36.800781 76.71875 36.980469 77.753906 38.027344 C 78.785156 39.078125 78.941406 40.710938 78.125 41.9375 Z M 78.125 41.9375 "/>
<path style=" stroke:none;fill-rule:nonzero;fill:rgb(18.431373%,18.039216%,25.490196%);fill-opacity:1;" d="M 60.433594 34.054688 L 54.433594 35.679688 C 53.757812 35.859375 53.058594 35.460938 52.878906 34.78125 L 50.773438 26.984375 C 50.308594 25.257812 51.222656 23.453125 52.890625 22.808594 C 54.558594 22.160156 56.441406 22.882812 57.257812 24.476562 L 61.230469 32.246094 C 61.40625 32.589844 61.417969 32.992188 61.261719 33.339844 C 61.109375 33.691406 60.804688 33.953125 60.433594 34.054688 Z M 60.433594 34.054688 "/>
<path style=" stroke:none;fill-rule:nonzero;fill:rgb(100%,72.156863%,72.156863%);fill-opacity:1;" d="M 56.957031 105.648438 L 60.414062 105.648438 L 62.054688 92.296875 L 56.957031 92.296875 Z M 56.957031 105.648438 "/>
<path style=" stroke:none;fill-rule:nonzero;fill:rgb(18.431373%,18.039216%,25.490196%);fill-opacity:1;" d="M 67.078125 108.863281 L 56.21875 108.863281 L 56.21875 104.660156 L 62.878906 104.660156 C 65.199219 104.660156 67.078125 106.542969 67.078125 108.863281 Z M 67.078125 108.863281 "/>
<path style=" stroke:none;fill-rule:nonzero;fill:rgb(100%,72.156863%,72.156863%);fill-opacity:1;" d="M 26.160156 102.273438 L 29.394531 103.496094 L 35.640625 91.585938 L 30.867188 89.78125 Z M 26.160156 102.273438 "/>
<path style=" stroke:none;fill-rule:nonzero;fill:rgb(18.431373%,18.039216%,25.490196%);fill-opacity:1;" d="M 34.496094 108.863281 L 24.335938 105.019531 L 25.816406 101.085938 L 32.050781 103.445312 C 34.21875 104.265625 35.3125 106.691406 34.496094 108.863281 Z M 34.496094 108.863281 "/>
<path style=" stroke:none;fill-rule:nonzero;fill:rgb(18.431373%,18.039216%,25.490196%);fill-opacity:1;" d="M 56.847656 102.546875 C 56.300781 102.546875 55.8125 102.191406 55.644531 101.667969 L 46.832031 74.398438 C 46.777344 74.234375 46.628906 74.117188 46.457031 74.109375 C 46.28125 74.097656 46.121094 74.191406 46.046875 74.351562 L 33.832031 100.386719 C 33.558594 100.96875 32.894531 101.253906 32.285156 101.050781 L 27.472656 99.445312 C 26.839844 99.230469 26.480469 98.5625 26.648438 97.914062 L 34.128906 69.523438 C 34.914062 66.515625 35.476562 63.453125 35.820312 60.363281 C 36.347656 55.277344 38.726562 50.566406 42.503906 47.128906 C 44.15625 45.613281 45.230469 43.570312 45.539062 41.347656 L 45.558594 41.207031 L 56.515625 42.941406 L 63.457031 99.679688 C 63.53125 100.308594 63.136719 100.894531 62.527344 101.0625 L 57.179688 102.503906 C 57.070312 102.53125 56.960938 102.546875 56.847656 102.546875 Z M 56.847656 102.546875 "/>
<path style=" stroke:none;fill-rule:nonzero;fill:rgb(100%,72.156863%,72.156863%);fill-opacity:1;" d="M 55.933594 11.660156 C 55.933594 15.492188 52.832031 18.59375 49.007812 18.59375 C 45.1875 18.59375 42.085938 15.492188 42.085938 11.660156 C 42.085938 7.828125 45.1875 4.722656 49.007812 4.722656 C 52.832031 4.722656 55.933594 7.828125 55.933594 11.660156 Z M 55.933594 11.660156 "/>
<path style=" stroke:none;fill-rule:nonzero;fill:rgb(25.882353%,66.666667%,22.352941%);fill-opacity:1;" d="M 55.835938 44.148438 C 55.8125 44.148438 55.792969 44.148438 55.769531 44.148438 L 44.910156 43.605469 C 44.28125 43.578125 43.773438 43.089844 43.710938 42.464844 L 42.226562 27.972656 C 42.007812 25.816406 42.863281 23.691406 44.519531 22.296875 C 46.175781 20.902344 48.410156 20.417969 50.492188 21.003906 C 51.339844 21.238281 52.132812 21.644531 52.816406 22.203125 C 60.457031 28.488281 57.992188 39.878906 57.054688 43.21875 C 56.90625 43.769531 56.40625 44.152344 55.835938 44.148438 Z M 55.835938 44.148438 "/>
<path style=" stroke:none;fill-rule:nonzero;fill:rgb(100%,72.156863%,72.156863%);fill-opacity:1;" d="M 46.386719 53.882812 C 46.085938 53.882812 45.785156 53.835938 45.496094 53.75 C 44.648438 53.492188 43.953125 52.886719 43.582031 52.082031 C 43.210938 51.28125 43.195312 50.355469 43.546875 49.542969 C 43.589844 49.449219 43.632812 49.359375 43.683594 49.269531 L 37.164062 37.046875 C 36.113281 35.0625 36.488281 32.621094 38.085938 31.046875 L 41.082031 28.105469 L 44.753906 32.125 L 42.542969 34.761719 L 47.230469 47.789062 C 47.367188 47.824219 47.496094 47.871094 47.625 47.925781 C 48.972656 48.507812 49.726562 49.964844 49.429688 51.410156 C 49.128906 52.851562 47.859375 53.886719 46.386719 53.882812 Z M 46.386719 53.882812 "/>
<path style=" stroke:none;fill-rule:nonzero;fill:rgb(18.431373%,18.039216%,25.490196%);fill-opacity:1;" d="M 43.140625 34.757812 L 38.464844 30.652344 C 37.9375 30.191406 37.886719 29.386719 38.347656 28.859375 L 43.660156 22.785156 C 44.839844 21.441406 46.84375 21.203125 48.304688 22.234375 C 49.765625 23.269531 50.210938 25.242188 49.339844 26.804688 L 45.082031 34.425781 C 44.894531 34.757812 44.566406 34.992188 44.191406 35.054688 C 43.8125 35.121094 43.425781 35.011719 43.140625 34.757812 Z M 43.140625 34.757812 "/>
<path style=" stroke:none;fill-rule:nonzero;fill:rgb(18.431373%,18.039216%,25.490196%);fill-opacity:1;" d="M 44.554688 18.398438 C 45.1875 18.621094 45.960938 18.820312 46.457031 18.355469 C 46.941406 17.898438 46.855469 17.070312 46.570312 16.457031 C 46.28125 15.84375 45.839844 15.300781 45.703125 14.632812 C 45.507812 13.679688 46.011719 12.6875 46.730469 12.066406 C 47.449219 11.441406 48.355469 11.113281 49.238281 10.800781 L 54.085938 9.074219 C 55.285156 8.648438 56.578125 8.144531 57.246094 7.019531 C 58.21875 5.394531 57.332031 3.070312 55.738281 2.121094 C 54.144531 1.171875 52.132812 1.347656 50.414062 2.015625 C 49.464844 2.382812 48.558594 2.894531 47.574219 3.152344 C 45.636719 3.664062 43.429688 3.207031 41.722656 4.300781 C 40.242188 5.257812 39.550781 7.203125 39.601562 9.023438 C 39.652344 10.847656 40.320312 12.582031 41.027344 14.246094 C 41.449219 15.238281 41.894531 16.242188 42.609375 17.027344 C 43.320312 17.816406 44.347656 18.367188 45.375 18.222656 Z M 44.554688 18.398438 "/>
<path style=" stroke:none;fill-rule:nonzero;fill:rgb(18.431373%,18.039216%,25.490196%);fill-opacity:1;" d="M 43.847656 5.648438 C 43.847656 8.765625 41.324219 11.296875 38.210938 11.296875 C 35.097656 11.296875 32.574219 8.765625 32.574219 5.648438 C 32.574219 2.527344 35.097656 0 38.210938 0 C 41.324219 0 43.847656 2.527344 43.847656 5.648438 Z M 43.847656 5.648438 "/>
<path style=" stroke:none;fill-rule:nonzero;fill:rgb(24.705882%,23.921569%,33.72549%);fill-opacity:1;" d="M 83.929688 38.25 L 83.828125 38.234375 L 84.207031 35.488281 C 84.324219 34.613281 83.714844 33.804688 82.835938 33.683594 L 77.03125 32.882812 C 76.15625 32.761719 75.347656 33.375 75.226562 34.253906 L 73.160156 49.316406 C 73.039062 50.191406 73.652344 51.003906 74.527344 51.125 L 80.335938 51.921875 C 81.210938 52.042969 82.019531 51.429688 82.136719 50.550781 L 83.558594 40.191406 L 83.660156 40.203125 Z M 83.929688 38.25 "/>
<path style=" stroke:none;fill-rule:nonzero;fill:rgb(100%,100%,100%);fill-opacity:1;" d="M 82.65625 34.488281 L 81.933594 34.386719 C 81.976562 34.5625 81.929688 34.75 81.8125 34.882812 C 81.691406 35.019531 81.511719 35.085938 81.332031 35.058594 L 78.160156 34.625 C 77.980469 34.597656 77.828125 34.488281 77.746094 34.324219 C 77.667969 34.160156 77.675781 33.96875 77.765625 33.8125 L 77.089844 33.722656 C 76.464844 33.636719 75.890625 34.074219 75.804688 34.699219 L 73.835938 49.042969 C 73.75 49.667969 74.1875 50.246094 74.8125 50.332031 L 80.375 51.097656 C 81 51.183594 81.574219 50.746094 81.660156 50.121094 L 83.628906 35.773438 C 83.714844 35.148438 83.277344 34.574219 82.65625 34.488281 Z M 82.65625 34.488281 "/>
<path style=" stroke:none;fill-rule:nonzero;fill:rgb(25.882353%,66.666667%,22.352941%);fill-opacity:1;" d="M 81.808594 43.292969 C 81.808594 45.007812 80.421875 46.398438 78.707031 46.398438 C 76.996094 46.398438 75.609375 45.007812 75.609375 43.292969 C 75.609375 41.578125 76.996094 40.1875 78.707031 40.1875 C 80.421875 40.1875 81.808594 41.578125 81.808594 43.292969 Z M 81.808594 43.292969 "/>
<path style=" stroke:none;fill-rule:nonzero;fill:rgb(100%,100%,100%);fill-opacity:1;" d="M 78.402344 44.476562 C 78.332031 44.476562 78.261719 44.453125 78.207031 44.414062 L 78.203125 44.410156 L 77.476562 43.851562 C 77.382812 43.78125 77.335938 43.667969 77.351562 43.550781 C 77.363281 43.4375 77.441406 43.335938 77.546875 43.292969 C 77.65625 43.25 77.777344 43.265625 77.871094 43.335938 L 78.339844 43.699219 L 79.457031 42.242188 C 79.566406 42.097656 79.769531 42.074219 79.910156 42.183594 L 79.902344 42.191406 L 79.910156 42.183594 C 80.050781 42.289062 80.078125 42.496094 79.96875 42.636719 L 78.660156 44.351562 C 78.597656 44.429688 78.5 44.476562 78.402344 44.476562 Z M 78.402344 44.476562 "/>
<path style=" stroke:none;fill-rule:nonzero;fill:rgb(80%,80%,80%);fill-opacity:1;" d="M 238.558594 109.082031 L 2.011719 109.082031 C 1.824219 109.082031 1.675781 108.929688 1.675781 108.746094 C 1.675781 108.558594 1.824219 108.410156 2.011719 108.410156 L 238.558594 108.410156 C 238.742188 108.410156 238.894531 108.558594 238.894531 108.746094 C 238.894531 108.929688 238.742188 109.082031 238.558594 109.082031 Z M 238.558594 109.082031 "/>
</g>
</svg>
