<?xml version="1.0" encoding="UTF-8"?>
<svg xmlns="http://www.w3.org/2000/svg" xmlns:xlink="http://www.w3.org/1999/xlink" width="230px" height="165px" viewBox="0 0 230 165" version="1.1">
<defs>
<filter id="alpha" filterUnits="objectBoundingBox" x="0%" y="0%" width="100%" height="100%">
  <feColorMatrix type="matrix" in="SourceGraphic" values="0 0 0 0 1 0 0 0 0 1 0 0 0 0 1 0 0 0 1 0"/>
</filter>
<mask id="mask0">
  <g filter="url(#alpha)">
<rect x="0" y="0" width="230" height="165" style="fill:rgb(0%,0%,0%);fill-opacity:0.101961;stroke:none;"/>
  </g>
</mask>
<clipPath id="clip1">
  <rect x="0" y="0" width="230" height="165"/>
</clipPath>
<g id="surface5" clip-path="url(#clip1)">
<path style=" stroke:none;fill-rule:nonzero;fill:rgb(25.882353%,66.666667%,22.352941%);fill-opacity:1;" d="M 230 157.722656 C 230 153.71875 178.511719 150.472656 115 150.472656 C 51.488281 150.472656 0 153.71875 0 157.722656 C 0 161.726562 51.488281 164.972656 115 164.972656 C 178.511719 164.972656 230 161.726562 230 157.722656 Z M 230 157.722656 "/>
</g>
<mask id="mask1">
  <g filter="url(#alpha)">
<rect x="0" y="0" width="230" height="165" style="fill:rgb(0%,0%,0%);fill-opacity:0.101961;stroke:none;"/>
  </g>
</mask>
<clipPath id="clip2">
  <rect x="0" y="0" width="230" height="165"/>
</clipPath>
<g id="surface8" clip-path="url(#clip2)">
<path style=" stroke:none;fill-rule:nonzero;fill:rgb(0%,0%,0%);fill-opacity:1;" d="M 211.960938 152.351562 C 211.964844 152.925781 211.90625 153.496094 211.785156 154.054688 C 211.765625 154.160156 211.738281 154.277344 211.714844 154.367188 C 211.640625 154.367188 211.570312 154.367188 211.496094 154.367188 C 210.953125 154.335938 210.414062 154.261719 209.886719 154.144531 C 209.414062 154.292969 208.933594 154.402344 208.449219 154.476562 C 208.074219 154.53125 207.699219 154.566406 207.320312 154.582031 L 206.941406 154.582031 C 206.488281 154.582031 206.039062 154.550781 205.589844 154.492188 C 204.867188 154.394531 204.15625 154.21875 203.472656 153.964844 C 203.097656 154.089844 202.714844 154.191406 202.328125 154.273438 C 202.3125 154.203125 202.296875 154.132812 202.28125 154.050781 C 202.164062 153.492188 202.105469 152.921875 202.105469 152.347656 C 202.105469 148.773438 204.3125 145.875 207.035156 145.875 C 209.757812 145.875 211.960938 148.78125 211.960938 152.351562 Z M 211.960938 152.351562 "/>
</g>
<mask id="mask2">
  <g filter="url(#alpha)">
<rect x="0" y="0" width="230" height="165" style="fill:rgb(0%,0%,0%);fill-opacity:0.101961;stroke:none;"/>
  </g>
</mask>
<clipPath id="clip3">
  <rect x="0" y="0" width="230" height="165"/>
</clipPath>
<g id="surface11" clip-path="url(#clip3)">
<path style=" stroke:none;fill-rule:nonzero;fill:rgb(0%,0%,0%);fill-opacity:1;" d="M 222.300781 142.164062 C 219.242188 141.582031 216.101562 141.542969 213.027344 142.046875 C 209.546875 142.625 205.988281 143.894531 202.585938 142.964844 C 200.589844 142.421875 198.863281 141.160156 196.910156 140.460938 C 195.027344 139.800781 193 139.679688 191.050781 140.105469 C 189.535156 143.746094 190.277344 147.9375 192.953125 150.828125 C 195.625 153.71875 199.738281 154.773438 203.46875 153.523438 C 205.53125 154.28125 207.78125 154.34375 209.882812 153.699219 C 212.847656 154.359375 215.949219 153.632812 218.320312 151.726562 C 220.6875 149.816406 222.066406 146.9375 222.066406 143.890625 C 222.066406 143.671875 222.066406 143.449219 222.042969 143.230469 C 222.148438 142.882812 222.234375 142.527344 222.300781 142.164062 Z M 222.300781 142.164062 "/>
</g>
<mask id="mask3">
  <g filter="url(#alpha)">
<rect x="0" y="0" width="230" height="165" style="fill:rgb(0%,0%,0%);fill-opacity:0.2;stroke:none;"/>
  </g>
</mask>
<clipPath id="clip4">
  <rect x="0" y="0" width="230" height="165"/>
</clipPath>
<g id="surface14" clip-path="url(#clip4)">
<path style=" stroke:none;fill-rule:nonzero;fill:rgb(25.882353%,66.666667%,22.352941%);fill-opacity:1;" d="M 148.296875 68.203125 L 148.296875 113.777344 L 147.820312 113.777344 L 147.820312 113.824219 L 81.5625 113.824219 L 81.5625 58.144531 C 81.988281 57.660156 82.417969 57.15625 82.855469 56.632812 C 92.160156 45.484375 104.808594 42.554688 114.597656 42.246094 C 121.304688 42.027344 127.980469 43.417969 134.355469 46.179688 C 137.722656 47.636719 142.554688 49.238281 147.820312 49.394531 L 147.820312 66.625 C 148.140625 67.542969 148.296875 68.203125 148.296875 68.203125 Z M 148.296875 68.203125 "/>
</g>
<mask id="mask4">
  <g filter="url(#alpha)">
<rect x="0" y="0" width="230" height="165" style="fill:rgb(0%,0%,0%);fill-opacity:0.2;stroke:none;"/>
  </g>
</mask>
<clipPath id="clip5">
  <rect x="0" y="0" width="230" height="165"/>
</clipPath>
<g id="surface17" clip-path="url(#clip5)">
<path style=" stroke:none;fill-rule:nonzero;fill:rgb(25.882353%,66.666667%,22.352941%);fill-opacity:1;" d="M 148.296875 68.203125 L 148.296875 113.777344 L 81.5625 113.777344 L 81.5625 83.921875 C 83.9375 83.324219 87.257812 81.015625 91.515625 74.644531 C 96.609375 67.015625 103.527344 65.011719 108.882812 64.800781 C 112.554688 64.65625 116.207031 65.601562 119.695312 67.492188 C 123.617188 69.617188 131.179688 72.179688 136.925781 64.742188 C 143.277344 56.515625 146.65625 63.300781 147.820312 66.625 C 148.140625 67.542969 148.296875 68.203125 148.296875 68.203125 Z M 148.296875 68.203125 "/>
</g>
<mask id="mask5">
  <g filter="url(#alpha)">
<rect x="0" y="0" width="230" height="165" style="fill:rgb(0%,0%,0%);fill-opacity:0.101961;stroke:none;"/>
  </g>
</mask>
<clipPath id="clip6">
  <rect x="0" y="0" width="230" height="165"/>
</clipPath>
<g id="surface20" clip-path="url(#clip6)">
<path style=" stroke:none;fill-rule:nonzero;fill:rgb(0%,0%,0%);fill-opacity:1;" d="M 30.433594 155.648438 C 29.984375 155.199219 29.488281 154.804688 28.945312 154.476562 C 28.183594 153.96875 27.398438 153.453125 26.5 153.277344 C 25.710938 153.128906 24.898438 153.253906 24.089844 153.210938 C 22.695312 153.125 21.382812 152.519531 20.410156 151.515625 C 19.835938 150.921875 19.386719 150.199219 18.699219 149.738281 C 17.957031 149.25 17.011719 149.144531 16.132812 149.265625 C 15.878906 149.304688 15.625 149.359375 15.375 149.421875 C 14.980469 150.523438 14.777344 151.683594 14.777344 152.851562 C 14.777344 158.433594 19.289062 158.628906 24.855469 158.628906 C 27.554688 158.628906 30.007812 158.582031 31.816406 157.898438 L 31.515625 157.328125 C 31.226562 156.726562 30.863281 156.160156 30.433594 155.648438 Z M 30.433594 155.648438 "/>
</g>
<mask id="mask6">
  <g filter="url(#alpha)">
<rect x="0" y="0" width="230" height="165" style="fill:rgb(0%,0%,0%);fill-opacity:0.0509804;stroke:none;"/>
  </g>
</mask>
<clipPath id="clip7">
  <rect x="0" y="0" width="230" height="165"/>
</clipPath>
<g id="surface23" clip-path="url(#clip7)">
<path style=" stroke:none;fill-rule:nonzero;fill:rgb(0%,0%,0%);fill-opacity:1;" d="M 65.277344 117.835938 C 64.183594 121.691406 63.390625 125.625 62.902344 129.601562 C 62.832031 130.164062 62.761719 130.753906 62.425781 131.203125 C 61.75 132.113281 60.40625 132.054688 59.289062 131.90625 C 59.019531 131.894531 58.757812 131.820312 58.523438 131.6875 C 58.101562 131.402344 58.011719 130.832031 57.960938 130.324219 C 57.195312 122.84375 56.683594 115.339844 56.425781 107.820312 C 56.414062 107.53125 65.777344 107.503906 66.578125 108.257812 C 67.382812 109.011719 66.757812 111.832031 66.578125 112.789062 C 66.285156 114.5 65.757812 116.164062 65.277344 117.835938 Z M 65.277344 117.835938 "/>
</g>
<mask id="mask7">
  <g filter="url(#alpha)">
<rect x="0" y="0" width="230" height="165" style="fill:rgb(0%,0%,0%);fill-opacity:0.101961;stroke:none;"/>
  </g>
</mask>
<clipPath id="clip8">
  <rect x="0" y="0" width="230" height="165"/>
</clipPath>
<g id="surface26" clip-path="url(#clip8)">
<path style=" stroke:none;fill-rule:nonzero;fill:rgb(0%,0%,0%);fill-opacity:1;" d="M 32.933594 56.765625 C 34.386719 56.640625 35.824219 56.367188 37.21875 55.945312 C 36.828125 56 36.433594 56.046875 36.035156 56.082031 C 33.289062 56.3125 30.285156 56.082031 27.808594 57.050781 C 29.496094 56.875 31.261719 56.90625 32.933594 56.765625 Z M 32.933594 56.765625 "/>
<path style=" stroke:none;fill-rule:nonzero;fill:rgb(0%,0%,0%);fill-opacity:1;" d="M 30.488281 81.730469 C 29.800781 82.300781 29.4375 83.167969 29.007812 83.957031 C 27.679688 86.355469 25.554688 88.214844 23 89.199219 C 23.195312 89.1875 23.390625 89.171875 23.585938 89.144531 C 27.140625 88.707031 30.394531 86.421875 32.128906 83.269531 C 32.566406 82.484375 32.917969 81.617188 33.609375 81.046875 L 33.730469 80.953125 C 32.527344 80.925781 31.375 80.996094 30.488281 81.730469 Z M 30.488281 81.730469 "/>
<path style=" stroke:none;fill-rule:nonzero;fill:rgb(0%,0%,0%);fill-opacity:1;" d="M 60.578125 52.605469 C 59.484375 51.34375 57.871094 50.640625 56.25 50.261719 C 54.058594 49.746094 51.710938 49.753906 49.613281 50.5625 L 49.472656 50.617188 C 50.707031 50.546875 51.945312 50.65625 53.148438 50.945312 C 54.769531 51.328125 56.386719 52.027344 57.476562 53.292969 C 58.570312 54.554688 59.03125 56.464844 58.265625 57.949219 C 57.535156 59.359375 56.050781 58.921875 55.21875 59.832031 C 54.449219 60.664062 54.503906 61.792969 53.988281 62.800781 C 53.015625 64.683594 51.546875 66.269531 49.582031 67.023438 C 50.269531 66.859375 51.003906 66.785156 51.6875 66.636719 C 54.160156 66.09375 55.957031 64.300781 57.085938 62.113281 C 57.605469 61.105469 57.550781 59.980469 58.316406 59.148438 C 59.152344 58.234375 60.636719 58.671875 61.363281 57.265625 C 62.128906 55.785156 61.671875 53.871094 60.578125 52.605469 Z M 60.578125 52.605469 "/>
<path style=" stroke:none;fill-rule:nonzero;fill:rgb(0%,0%,0%);fill-opacity:1;" d="M 48.589844 67.324219 C 47.246094 67.621094 45.707031 67.613281 44.722656 68.578125 C 43.503906 69.773438 43.792969 71.757812 43.644531 73.460938 C 43.382812 76.4375 41.292969 79.101562 38.59375 80.3125 L 38.792969 80.3125 C 42.777344 80.1875 46.394531 76.761719 46.742188 72.777344 C 46.894531 71.074219 46.605469 69.089844 47.824219 67.894531 C 48.105469 67.628906 48.433594 67.417969 48.792969 67.277344 Z M 48.589844 67.324219 "/>
</g>
<mask id="mask8">
  <g filter="url(#alpha)">
<rect x="0" y="0" width="230" height="165" style="fill:rgb(0%,0%,0%);fill-opacity:0.0509804;stroke:none;"/>
  </g>
</mask>
<clipPath id="clip9">
  <rect x="0" y="0" width="230" height="165"/>
</clipPath>
<g id="surface29" clip-path="url(#clip9)">
<path style=" stroke:none;fill-rule:nonzero;fill:rgb(0%,0%,0%);fill-opacity:1;" d="M 48.789062 87.859375 C 49.226562 90.664062 47.96875 93.417969 46.75 95.988281 C 47.4375 96.492188 48.28125 96.742188 49.105469 96.960938 C 54.617188 98.414062 60.347656 98.847656 66.015625 98.238281 C 66.152344 97.289062 66.28125 96.28125 65.890625 95.40625 C 65.652344 94.863281 65.234375 94.421875 64.96875 93.890625 C 64.53125 93.011719 64.574219 91.992188 64.625 91.015625 L 65.015625 82.703125 C 62.296875 81.449219 59.144531 82.625 56.15625 82.792969 C 54.605469 82.882812 53.039062 82.691406 51.511719 82.96875 C 50.71875 83.109375 48.226562 83.503906 47.851562 84.324219 C 47.476562 85.144531 48.65625 86.964844 48.789062 87.859375 Z M 48.789062 87.859375 "/>
</g>
<mask id="mask9">
  <g filter="url(#alpha)">
<rect x="0" y="0" width="230" height="165" style="fill:rgb(0%,0%,0%);fill-opacity:0.101961;stroke:none;"/>
  </g>
</mask>
<clipPath id="clip10">
  <rect x="0" y="0" width="230" height="165"/>
</clipPath>
<g id="surface32" clip-path="url(#clip10)">
<path style=" stroke:none;fill-rule:nonzero;fill:rgb(0%,0%,0%);fill-opacity:1;" d="M 57.40625 52.757812 C 57.277344 52.683594 57.148438 52.621094 57.011719 52.566406 C 57.792969 53.28125 58.140625 54.355469 57.917969 55.394531 C 57.699219 56.429688 56.941406 57.269531 55.9375 57.597656 C 54.230469 58.160156 52.382812 57.105469 50.597656 57.324219 C 50.238281 57.351562 49.894531 57.484375 49.609375 57.707031 C 48.8125 58.394531 49.210938 59.667969 49.492188 60.683594 C 49.675781 61.34375 49.898438 63.746094 48.734375 63.8125 L 48.714844 63.8125 C 49.074219 64.164062 49.402344 64.394531 49.632812 64.382812 C 50.800781 64.316406 50.574219 61.917969 50.390625 61.257812 C 50.109375 60.238281 49.710938 58.96875 50.507812 58.277344 C 50.792969 58.054688 51.136719 57.925781 51.5 57.898438 C 53.285156 57.675781 55.128906 58.730469 56.839844 58.167969 C 57.953125 57.804688 58.746094 56.816406 58.871094 55.648438 C 58.992188 54.480469 58.417969 53.351562 57.40625 52.761719 Z M 57.40625 52.757812 "/>
</g>
<mask id="mask10">
  <g filter="url(#alpha)">
<rect x="0" y="0" width="230" height="165" style="fill:rgb(0%,0%,0%);fill-opacity:0.0313725;stroke:none;"/>
  </g>
</mask>
<clipPath id="clip11">
  <rect x="0" y="0" width="230" height="165"/>
</clipPath>
<g id="surface35" clip-path="url(#clip11)">
<path style=" stroke:none;fill-rule:nonzero;fill:rgb(0%,0%,0%);fill-opacity:1;" d="M 50.761719 16.296875 C 49.527344 16.0625 48.25 16.203125 47.09375 16.699219 C 45.691406 17.324219 44.085938 17.324219 42.683594 16.699219 C 41.023438 15.96875 39.125 16.003906 37.496094 16.800781 C 37.035156 17.042969 36.523438 17.171875 36.003906 17.175781 C 33.898438 17.175781 32.148438 15.050781 31.785156 12.246094 C 32.207031 11.9375 32.5625 11.554688 32.835938 11.109375 C 34.070312 9.117188 35.980469 7.835938 38.125 7.835938 C 40.269531 7.835938 42.15625 9.101562 43.382812 11.074219 C 44.132812 12.28125 45.457031 13.003906 46.875 12.988281 L 46.929688 12.988281 C 48.605469 12.988281 50.058594 14.332031 50.761719 16.296875 Z M 50.761719 16.296875 "/>
</g>
<mask id="mask11">
  <g filter="url(#alpha)">
<rect x="0" y="0" width="230" height="165" style="fill:rgb(0%,0%,0%);fill-opacity:0.0313725;stroke:none;"/>
  </g>
</mask>
<clipPath id="clip12">
  <rect x="0" y="0" width="230" height="165"/>
</clipPath>
<g id="surface38" clip-path="url(#clip12)">
<path style=" stroke:none;fill-rule:nonzero;fill:rgb(0%,0%,0%);fill-opacity:1;" d="M 170.28125 60.890625 C 169.664062 60.773438 169.027344 60.84375 168.449219 61.089844 C 167.753906 61.402344 166.957031 61.402344 166.257812 61.089844 C 165.429688 60.730469 164.484375 60.746094 163.671875 61.140625 C 163.441406 61.265625 163.1875 61.328125 162.925781 61.332031 C 161.878906 61.332031 161.007812 60.269531 160.824219 58.871094 C 161.035156 58.71875 161.210938 58.527344 161.347656 58.304688 C 161.964844 57.3125 162.917969 56.671875 163.976562 56.671875 C 165.035156 56.671875 165.988281 57.304688 166.605469 58.285156 C 166.980469 58.894531 167.644531 59.257812 168.359375 59.246094 L 168.382812 59.246094 C 169.207031 59.238281 169.929688 59.910156 170.28125 60.890625 Z M 170.28125 60.890625 "/>
</g>
<mask id="mask12">
  <g filter="url(#alpha)">
<rect x="0" y="0" width="230" height="165" style="fill:rgb(0%,0%,0%);fill-opacity:0.0313725;stroke:none;"/>
  </g>
</mask>
<clipPath id="clip13">
  <rect x="0" y="0" width="230" height="165"/>
</clipPath>
<g id="surface41" clip-path="url(#clip13)">
<path style=" stroke:none;fill-rule:nonzero;fill:rgb(0%,0%,0%);fill-opacity:1;" d="M 182.371094 35.539062 C 183.363281 35.347656 184.386719 35.460938 185.3125 35.859375 C 186.4375 36.363281 187.722656 36.363281 188.847656 35.859375 C 190.179688 35.273438 191.703125 35.304688 193.007812 35.941406 C 193.378906 36.136719 193.789062 36.238281 194.207031 36.242188 C 195.890625 36.242188 197.292969 34.539062 197.585938 32.285156 C 197.246094 32.039062 196.960938 31.730469 196.742188 31.375 C 195.753906 29.777344 194.222656 28.753906 192.503906 28.753906 C 190.789062 28.753906 189.273438 29.765625 188.285156 31.34375 C 187.6875 32.3125 186.625 32.898438 185.488281 32.882812 L 185.445312 32.882812 C 184.097656 32.886719 182.933594 33.964844 182.371094 35.539062 Z M 182.371094 35.539062 "/>
</g>
</defs>
<g id="surface1">
<use xlink:href="#surface5" mask="url(#mask0)"/>
<path style=" stroke:none;fill-rule:nonzero;fill:rgb(24.705882%,23.921569%,33.72549%);fill-opacity:1;" d="M 211.960938 152.351562 C 211.964844 152.925781 211.90625 153.496094 211.785156 154.054688 C 211.765625 154.160156 211.738281 154.277344 211.714844 154.367188 C 211.09375 156.867188 209.339844 158.699219 207.246094 158.816406 C 207.175781 158.816406 207.105469 158.816406 207.027344 158.816406 C 204.8125 158.816406 202.9375 156.898438 202.320312 154.261719 C 202.304688 154.191406 202.289062 154.121094 202.273438 154.039062 C 202.15625 153.480469 202.097656 152.910156 202.097656 152.335938 C 202.097656 148.761719 204.304688 145.867188 207.027344 145.867188 C 209.75 145.867188 211.960938 148.78125 211.960938 152.351562 Z M 211.960938 152.351562 "/>
<use xlink:href="#surface8" mask="url(#mask1)"/>
<path style=" stroke:none;fill-rule:nonzero;fill:rgb(25.882353%,66.666667%,22.352941%);fill-opacity:1;" d="M 222.476562 140.300781 C 222.476562 138.726562 222.109375 137.175781 221.402344 135.773438 L 215.605469 137.582031 L 220.695312 134.582031 C 218.964844 132.074219 216.199219 130.492188 213.167969 130.277344 C 212.929688 129.914062 212.667969 129.570312 212.386719 129.242188 L 204.0625 131.839844 L 210.890625 127.816406 C 208.238281 125.773438 204.746094 125.195312 201.578125 126.269531 C 198.414062 127.34375 195.988281 129.933594 195.117188 133.171875 L 202.25 141.40625 L 194.515625 135.792969 C 190.460938 138.671875 189.121094 144.09375 191.367188 148.539062 C 193.617188 152.980469 198.769531 155.105469 203.480469 153.523438 C 205.542969 154.28125 207.792969 154.34375 209.894531 153.699219 C 212.859375 154.359375 215.960938 153.632812 218.328125 151.726562 C 220.699219 149.816406 222.078125 146.9375 222.078125 143.890625 C 222.078125 143.671875 222.078125 143.449219 222.054688 143.230469 C 222.339844 142.28125 222.480469 141.292969 222.476562 140.300781 Z M 222.476562 140.300781 "/>
<use xlink:href="#surface11" mask="url(#mask2)"/>
<path style=" stroke:none;fill-rule:nonzero;fill:rgb(24.705882%,23.921569%,33.72549%);fill-opacity:1;" d="M 151.773438 37.78125 L 153.027344 37.78125 C 153.304688 37.78125 153.527344 38.007812 153.527344 38.285156 L 153.527344 55.960938 C 153.527344 56.238281 153.304688 56.460938 153.027344 56.460938 L 151.773438 56.460938 C 151.496094 56.460938 151.269531 56.238281 151.269531 55.960938 L 151.269531 38.285156 C 151.269531 38.007812 151.496094 37.78125 151.773438 37.78125 Z M 151.773438 37.78125 "/>
<path style=" stroke:none;fill-rule:nonzero;fill:rgb(24.705882%,23.921569%,33.72549%);fill-opacity:1;" d="M 76.503906 23.148438 L 77.117188 23.148438 C 77.296875 23.148438 77.445312 23.296875 77.445312 23.476562 L 77.445312 28.96875 C 77.445312 29.148438 77.296875 29.296875 77.117188 29.296875 L 76.503906 29.296875 C 76.324219 29.296875 76.175781 29.148438 76.175781 28.96875 L 76.175781 23.476562 C 76.175781 23.296875 76.324219 23.148438 76.503906 23.148438 Z M 76.503906 23.148438 "/>
<path style=" stroke:none;fill-rule:nonzero;fill:rgb(24.705882%,23.921569%,33.72549%);fill-opacity:1;" d="M 76.5 34.410156 L 77.1875 34.410156 C 77.390625 34.410156 77.558594 34.574219 77.558594 34.78125 L 77.558594 44.742188 C 77.558594 44.945312 77.390625 45.113281 77.1875 45.113281 L 76.5 45.113281 C 76.296875 45.113281 76.128906 44.945312 76.128906 44.742188 L 76.128906 34.78125 C 76.128906 34.574219 76.296875 34.410156 76.5 34.410156 Z M 76.5 34.410156 "/>
<path style=" stroke:none;fill-rule:nonzero;fill:rgb(24.705882%,23.921569%,33.72549%);fill-opacity:1;" d="M 76.503906 48.855469 L 77.160156 48.855469 C 77.355469 48.855469 77.511719 49.015625 77.511719 49.210938 L 77.511719 59.300781 C 77.511719 59.496094 77.355469 59.652344 77.160156 59.652344 L 76.503906 59.652344 C 76.308594 59.652344 76.152344 59.496094 76.152344 59.300781 L 76.152344 49.210938 C 76.152344 49.015625 76.308594 48.855469 76.503906 48.855469 Z M 76.503906 48.855469 "/>
<path style=" stroke:none;fill-rule:nonzero;fill:rgb(24.705882%,23.921569%,33.72549%);fill-opacity:1;" d="M 84.710938 2.828125 L 144.671875 2.828125 C 148.988281 2.828125 152.488281 6.339844 152.488281 10.667969 L 152.488281 149.082031 C 152.488281 153.414062 148.988281 156.921875 144.671875 156.921875 L 84.710938 156.921875 C 80.394531 156.921875 76.894531 153.414062 76.894531 149.082031 L 76.894531 10.667969 C 76.894531 6.339844 80.394531 2.828125 84.710938 2.828125 Z M 84.710938 2.828125 "/>
<path style=" stroke:none;fill-rule:nonzero;fill:rgb(90.196078%,90.980392%,92.54902%);fill-opacity:1;" d="M 107.957031 7.429688 L 117.398438 7.429688 C 117.707031 7.429688 117.953125 7.679688 117.953125 7.988281 L 117.953125 9.019531 C 117.953125 9.328125 117.707031 9.578125 117.398438 9.578125 L 107.957031 9.578125 C 107.648438 9.578125 107.398438 9.328125 107.398438 9.019531 L 107.398438 7.988281 C 107.398438 7.679688 107.648438 7.429688 107.957031 7.429688 Z M 107.957031 7.429688 "/>
<path style=" stroke:none;fill-rule:nonzero;fill:rgb(90.196078%,90.980392%,92.54902%);fill-opacity:1;" d="M 121.984375 8.503906 C 121.984375 9.175781 121.4375 9.722656 120.765625 9.722656 C 120.097656 9.722656 119.550781 9.175781 119.550781 8.503906 C 119.550781 7.828125 120.097656 7.285156 120.765625 7.285156 C 121.4375 7.285156 121.984375 7.828125 121.984375 8.503906 Z M 121.984375 8.503906 "/>
<path style=" stroke:none;fill-rule:nonzero;fill:rgb(100%,100%,100%);fill-opacity:1;" d="M 147.820312 12.863281 L 147.820312 146.882812 C 147.820312 150.207031 145.132812 152.902344 141.816406 152.902344 L 87.566406 152.902344 C 84.25 152.902344 81.5625 150.207031 81.5625 146.882812 L 81.5625 12.863281 C 81.5625 9.535156 84.25 6.839844 87.566406 6.839844 L 95.683594 6.839844 L 95.683594 7.886719 C 95.6875 10.621094 97.902344 12.835938 100.628906 12.835938 L 128.226562 12.835938 C 130.957031 12.835938 133.171875 10.617188 133.171875 7.878906 L 133.171875 6.839844 L 141.828125 6.839844 C 145.136719 6.84375 147.820312 9.539062 147.820312 12.863281 Z M 147.820312 12.863281 "/>
<use xlink:href="#surface14" mask="url(#mask3)"/>
<use xlink:href="#surface17" mask="url(#mask4)"/>
<path style=" stroke:none;fill-rule:nonzero;fill:rgb(45.098039%,43.137255%,61.960784%);fill-opacity:1;" d="M 90.90625 105.429688 L 138.65625 105.429688 C 140.109375 105.429688 141.285156 106.609375 141.285156 108.066406 L 141.285156 119.492188 C 141.285156 120.949219 140.109375 122.128906 138.65625 122.128906 L 90.90625 122.128906 C 89.453125 122.128906 88.277344 120.949219 88.277344 119.492188 L 88.277344 108.066406 C 88.277344 106.609375 89.453125 105.429688 90.90625 105.429688 Z M 90.90625 105.429688 "/>
<path style=" stroke:none;fill-rule:nonzero;fill:rgb(25.882353%,66.666667%,22.352941%);fill-opacity:1;" d="M 29.367188 150.21875 L 33.558594 147.738281 C 32.992188 146.765625 32.265625 145.898438 31.414062 145.164062 L 23.503906 147.640625 L 29.703125 143.984375 C 26.582031 142.269531 22.789062 142.332031 19.726562 144.152344 C 16.664062 145.972656 14.785156 149.28125 14.785156 152.851562 C 14.785156 158.433594 19.296875 158.625 24.863281 158.625 C 30.429688 158.625 34.9375 158.433594 34.9375 152.851562 C 34.941406 151.4375 34.644531 150.039062 34.074219 148.75 Z M 29.367188 150.21875 "/>
<use xlink:href="#surface20" mask="url(#mask5)"/>
<path style=" stroke:none;fill-rule:nonzero;fill:rgb(24.705882%,23.921569%,33.72549%);fill-opacity:1;" d="M 49.996094 127.933594 C 49.675781 128.21875 49.429688 128.574219 49.277344 128.972656 C 48.902344 130.144531 49.949219 131.296875 50.050781 132.523438 C 50.128906 133.5 49.613281 134.410156 49.320312 135.347656 C 48.640625 137.722656 49.464844 140.277344 51.402344 141.804688 C 51.605469 141.976562 51.84375 142.101562 52.101562 142.164062 C 52.527344 142.21875 52.957031 142.089844 53.289062 141.8125 C 53.796875 141.441406 54.1875 140.929688 54.40625 140.335938 C 54.585938 139.757812 54.683594 139.152344 54.695312 138.542969 L 54.851562 136.191406 C 55.015625 133.738281 55.160156 131.207031 54.566406 128.796875 C 54.371094 128.003906 54.007812 126.1875 53.097656 126.078125 C 52.1875 125.96875 50.601562 127.34375 49.996094 127.933594 Z M 49.996094 127.933594 "/>
<path style=" stroke:none;fill-rule:nonzero;fill:rgb(98.431373%,74.509804%,74.509804%);fill-opacity:1;" d="M 65.277344 117.835938 C 64.183594 121.691406 63.390625 125.625 62.902344 129.601562 C 62.832031 130.164062 62.761719 130.753906 62.425781 131.203125 C 61.75 132.113281 60.40625 132.054688 59.289062 131.90625 C 59.019531 131.894531 58.757812 131.820312 58.523438 131.6875 C 58.101562 131.402344 58.011719 130.832031 57.960938 130.324219 C 57.195312 122.84375 56.683594 115.339844 56.425781 107.820312 C 56.414062 107.53125 65.777344 107.503906 66.578125 108.257812 C 67.382812 109.011719 66.757812 111.832031 66.578125 112.789062 C 66.285156 114.5 65.757812 116.164062 65.277344 117.835938 Z M 65.277344 117.835938 "/>
<use xlink:href="#surface23" mask="url(#mask6)"/>
<path style=" stroke:none;fill-rule:nonzero;fill:rgb(98.431373%,74.509804%,74.509804%);fill-opacity:1;" d="M 45.78125 106.75 L 49.574219 115.113281 C 50.835938 117.894531 52.105469 120.707031 52.707031 123.703125 C 52.949219 124.953125 53.101562 126.21875 53.167969 127.492188 C 53.261719 128.582031 53.226562 129.679688 53.070312 130.761719 C 52.929688 131.566406 52.675781 132.347656 52.566406 133.15625 C 52.125 136.382812 53.945312 139.414062 55.195312 142.410156 C 56.269531 144.988281 56.957031 147.710938 57.226562 150.492188 C 57.339844 151.675781 57.402344 152.929688 58.078125 153.910156 C 59.3125 153.539062 60.515625 153.21875 61.800781 153.363281 C 62.03125 151.46875 60.839844 149.726562 60.402344 147.871094 C 59.597656 144.464844 61.375 140.886719 60.769531 137.4375 C 60.441406 135.570312 59.421875 133.8125 59.507812 131.917969 C 59.660156 128.464844 60.308594 124.976562 59.652344 121.59375 C 58.910156 117.765625 56.78125 114.289062 56.3125 110.421875 C 55.949219 107.453125 56.53125 104.167969 54.878906 101.671875 C 51.277344 101.457031 47.550781 103.59375 45.78125 106.75 Z M 45.78125 106.75 "/>
<path style=" stroke:none;fill-rule:nonzero;fill:rgb(24.705882%,23.921569%,33.72549%);fill-opacity:1;" d="M 58.242188 159.277344 C 57.863281 159.289062 57.421875 159.277344 57.1875 158.976562 C 57.074219 158.800781 57.007812 158.597656 56.996094 158.390625 C 56.816406 157.066406 56.730469 155.730469 56.734375 154.390625 C 56.734375 153.90625 56.753906 153.386719 57.027344 152.984375 C 57.226562 152.738281 57.453125 152.519531 57.703125 152.324219 C 58.285156 151.785156 58.707031 151.007812 59.457031 150.757812 C 60.125 150.5625 60.847656 150.753906 61.332031 151.253906 C 61.804688 151.757812 62.097656 152.40625 62.164062 153.097656 C 62.273438 153.914062 62.183594 154.804688 62.613281 155.511719 C 62.785156 155.789062 63.023438 156.011719 63.21875 156.269531 C 63.875 157.148438 64.464844 158.871094 63.109375 159.226562 C 61.671875 159.601562 59.734375 159.226562 58.242188 159.277344 Z M 58.242188 159.277344 "/>
<path style=" stroke:none;fill-rule:nonzero;fill:rgb(24.705882%,23.921569%,33.72549%);fill-opacity:1;" d="M 61.53125 57.25 C 62.296875 55.765625 61.839844 53.851562 60.742188 52.589844 C 59.648438 51.332031 58.046875 50.628906 56.414062 50.246094 C 54.222656 49.734375 51.875 49.738281 49.777344 50.546875 C 48.105469 51.191406 46.667969 52.304688 45.125 53.214844 C 42.402344 54.820312 39.351562 55.796875 36.199219 56.070312 C 32.695312 56.367188 28.78125 55.90625 26.070312 58.144531 C 21.109375 62.242188 24.5625 71.480469 19.9375 75.953125 C 18.6875 77.160156 17.023438 77.8125 15.59375 78.796875 C 14.160156 79.777344 12.882812 81.347656 13.113281 83.070312 C 13.222656 83.898438 13.671875 84.648438 14.195312 85.300781 C 16.433594 88.105469 20.191406 89.574219 23.746094 89.136719 C 27.300781 88.699219 30.558594 86.410156 32.289062 83.261719 C 32.726562 82.472656 33.082031 81.609375 33.773438 81.035156 C 35.15625 79.890625 37.183594 80.351562 38.976562 80.296875 C 42.960938 80.175781 46.578125 76.75 46.925781 72.765625 C 47.074219 71.0625 46.785156 69.082031 48.007812 67.886719 C 48.988281 66.917969 50.527344 66.925781 51.871094 66.628906 C 54.34375 66.085938 56.140625 64.296875 57.269531 62.105469 C 57.785156 61.101562 57.734375 59.976562 58.5 59.140625 C 59.316406 58.222656 60.800781 58.660156 61.53125 57.25 Z M 61.53125 57.25 "/>
<use xlink:href="#surface26" mask="url(#mask7)"/>
<path style=" stroke:none;fill-rule:nonzero;fill:rgb(98.431373%,74.509804%,74.509804%);fill-opacity:1;" d="M 61.597656 77.246094 C 61.414062 77.566406 61.039062 77.71875 60.691406 77.847656 C 57.085938 79.179688 53.292969 80.535156 49.488281 79.972656 C 49.347656 79.375 49.207031 78.773438 49.066406 78.171875 C 48.863281 77.300781 48.660156 76.433594 48.453125 75.5625 C 48.355469 75.144531 48.257812 74.726562 48.179688 74.304688 C 48.042969 73.640625 48 72.957031 48.050781 72.277344 C 48.074219 72.035156 48.117188 71.789062 48.183594 71.550781 C 48.292969 71.117188 48.484375 70.707031 48.738281 70.339844 C 48.78125 70.28125 48.828125 70.222656 48.875 70.164062 C 49.09375 69.902344 49.355469 69.683594 49.652344 69.515625 C 50.296875 69.160156 51.183594 69.011719 51.445312 68.320312 C 51.546875 67.960938 51.535156 67.578125 51.417969 67.222656 C 51.199219 66.34375 50.800781 65.515625 50.554688 64.648438 C 50.246094 63.546875 50.714844 63.617188 51.773438 63.351562 C 53.675781 62.871094 55.671875 62.523438 57.628906 62.910156 C 57.535156 63.878906 57.445312 64.871094 57.6875 65.816406 C 57.929688 66.761719 58.582031 67.660156 59.515625 67.921875 C 59.65625 67.960938 59.800781 67.984375 59.957031 68.015625 C 60.160156 68.050781 60.351562 68.128906 60.519531 68.25 C 60.632812 68.34375 60.726562 68.464844 60.785156 68.605469 C 60.882812 68.835938 60.945312 69.078125 60.972656 69.328125 C 61.316406 71.632812 61.5625 73.949219 61.714844 76.277344 L 61.714844 76.367188 C 61.757812 76.664062 61.71875 76.96875 61.597656 77.246094 Z M 61.597656 77.246094 "/>
<path style=" stroke:none;fill-rule:nonzero;fill:rgb(98.431373%,74.509804%,74.509804%);fill-opacity:1;" d="M 43.035156 73.460938 C 42.214844 74.710938 41.9375 76.230469 41.6875 77.707031 L 40.097656 86.957031 C 39.878906 88.222656 39.683594 89.613281 40.332031 90.722656 C 40.550781 91.097656 40.855469 91.421875 41.015625 91.820312 C 41.136719 92.21875 41.214844 92.632812 41.253906 93.046875 C 41.625 95.167969 43.703125 96.597656 45.789062 97.113281 C 46.542969 97.300781 47.421875 97.371094 48.015625 96.867188 C 48.675781 96.320312 48.675781 95.28125 48.285156 94.527344 C 47.898438 93.777344 47.191406 93.246094 46.507812 92.742188 L 44.234375 91.0625 L 45.546875 80.957031 C 45.644531 80.222656 45.988281 79.273438 46.726562 79.355469 C 47.402344 79.425781 47.921875 80.414062 48.519531 80.09375 C 48.710938 79.964844 48.839844 79.773438 48.890625 79.550781 C 49.152344 78.722656 49.082031 77.828125 49.007812 76.960938 L 48.734375 73.828125 C 48.644531 72.8125 48.90625 72.046875 49.03125 71.09375 C 49.171875 69.980469 48.429688 70.316406 47.519531 70.558594 C 45.761719 71.023438 44.046875 71.90625 43.035156 73.460938 Z M 43.035156 73.460938 "/>
<path style=" stroke:none;fill-rule:nonzero;fill:rgb(98.431373%,74.509804%,74.509804%);fill-opacity:1;" d="M 71.28125 88.648438 C 71.113281 88.929688 70.867188 89.15625 70.570312 89.296875 C 68.796875 90.296875 66.710938 90.59375 64.730469 90.121094 C 64.273438 89.984375 63.8125 89.875 63.34375 89.792969 C 62.59375 89.703125 61.832031 89.851562 61.074219 89.792969 C 59.542969 89.679688 58.195312 88.71875 57.132812 87.597656 C 56.492188 86.9375 55.910156 85.859375 56.507812 85.152344 C 56.847656 84.804688 57.335938 84.65625 57.8125 84.757812 C 58.273438 84.859375 58.722656 85.027344 59.140625 85.253906 C 60.605469 85.933594 62.175781 86.367188 63.78125 86.535156 C 64.878906 86.648438 66.269531 86.464844 66.648438 85.417969 C 66.832031 84.914062 66.703125 84.351562 66.574219 83.824219 C 66.222656 82.386719 65.867188 80.949219 65.515625 79.507812 C 65.492188 79.382812 65.445312 79.261719 65.382812 79.148438 C 65.367188 79.121094 65.34375 79.089844 65.320312 79.066406 C 65.179688 78.949219 65.011719 78.875 64.832031 78.847656 C 64.015625 78.644531 63.199219 78.316406 62.613281 77.710938 C 62.230469 77.285156 61.921875 76.789062 61.710938 76.257812 C 61.648438 76.121094 61.59375 75.984375 61.53125 75.847656 C 61.082031 74.800781 60.609375 73.722656 60.246094 72.621094 C 59.988281 71.875 59.800781 71.105469 59.683594 70.328125 C 59.585938 69.652344 59.53125 69.34375 59.902344 69.046875 C 60 68.96875 60.105469 68.90625 60.214844 68.847656 C 60.382812 68.757812 60.574219 68.667969 60.773438 68.582031 L 60.96875 68.5 C 61.570312 68.261719 62.183594 68.0625 62.8125 67.910156 C 64.332031 67.558594 65.957031 68.296875 66.996094 69.460938 C 68.039062 70.628906 68.582031 72.15625 68.925781 73.683594 C 69.273438 75.210938 69.453125 76.773438 69.886719 78.277344 C 70.054688 78.867188 70.265625 79.445312 70.410156 80.035156 C 70.5625 80.734375 70.675781 81.445312 70.738281 82.160156 C 70.945312 83.980469 71.148438 85.800781 71.355469 87.621094 C 71.429688 87.964844 71.40625 88.320312 71.28125 88.648438 Z M 71.28125 88.648438 "/>
<path style=" stroke:none;fill-rule:nonzero;fill:rgb(98.431373%,74.509804%,74.509804%);fill-opacity:1;" d="M 48.789062 87.859375 C 49.226562 90.664062 47.96875 93.417969 46.75 95.988281 C 47.4375 96.492188 48.28125 96.742188 49.105469 96.960938 C 54.617188 98.414062 60.347656 98.847656 66.015625 98.238281 C 66.152344 97.289062 66.28125 96.28125 65.890625 95.40625 C 65.652344 94.863281 65.234375 94.421875 64.96875 93.890625 C 64.53125 93.011719 64.574219 91.992188 64.625 91.015625 L 65.015625 82.703125 C 62.296875 81.449219 59.144531 82.625 56.15625 82.792969 C 54.605469 82.882812 53.039062 82.691406 51.511719 82.96875 C 50.71875 83.109375 48.226562 83.503906 47.851562 84.324219 C 47.476562 85.144531 48.65625 86.964844 48.789062 87.859375 Z M 48.789062 87.859375 "/>
<use xlink:href="#surface29" mask="url(#mask8)"/>
<path style=" stroke:none;fill-rule:nonzero;fill:rgb(24.705882%,23.921569%,33.72549%);fill-opacity:1;" d="M 55.992188 95.90625 C 53.042969 95.289062 50.148438 94.273438 47.140625 94.203125 C 46.988281 94.1875 46.839844 94.214844 46.703125 94.285156 C 46.554688 94.40625 46.457031 94.578125 46.425781 94.765625 C 46.117188 95.84375 45.839844 96.925781 45.59375 98.019531 C 44.777344 101.652344 44.375 105.664062 46.167969 108.925781 C 46.152344 107.863281 46.816406 106.875 47.703125 106.289062 C 48.589844 105.699219 49.652344 105.464844 50.703125 105.367188 C 51.753906 105.269531 52.878906 105.308594 53.855469 105.742188 C 55.25 106.378906 56.199219 107.710938 56.347656 109.234375 L 66.699219 109.574219 C 66.820312 109.609375 66.953125 109.578125 67.050781 109.496094 C 67.148438 109.410156 67.195312 109.285156 67.179688 109.15625 C 67.5625 105.828125 67.546875 102.464844 67.136719 99.136719 C 67.023438 98.207031 67.007812 96.917969 65.964844 96.566406 C 64.722656 96.152344 62.753906 96.636719 61.425781 96.582031 C 59.597656 96.503906 57.78125 96.277344 55.992188 95.90625 Z M 55.992188 95.90625 "/>
<path style=" stroke:none;fill-rule:nonzero;fill:rgb(100%,43.529412%,38.039216%);fill-opacity:1;" d="M 65.386719 79.628906 L 65.351562 84.242188 L 54.882812 84.589844 C 52.960938 84.65625 51.023438 84.722656 49.152344 85.152344 C 48.613281 85.273438 48.082031 85.429688 47.550781 85.582031 C 47 83.550781 46.457031 81.429688 46.601562 79.359375 C 46.640625 78.800781 46.738281 78.25 46.890625 77.710938 C 47.222656 76.550781 47.847656 75.457031 48.179688 74.3125 C 48.3125 73.863281 48.386719 73.402344 48.398438 72.9375 C 48.375 72.46875 48.300781 72.007812 48.179688 71.558594 C 48.082031 71.1875 48.039062 70.808594 48.042969 70.425781 L 48.875 70.171875 C 48.898438 70.269531 48.917969 70.367188 48.933594 70.464844 C 48.96875 70.675781 49 70.886719 49.019531 71.101562 C 49.066406 71.628906 49.078125 72.160156 49.0625 72.691406 C 49.035156 73.75 48.890625 74.929688 49.550781 75.765625 C 50.40625 76.839844 52.054688 76.671875 53.398438 76.40625 L 56.921875 75.699219 C 58.035156 75.480469 59.277344 75.167969 59.855469 74.191406 C 60.105469 73.714844 60.234375 73.1875 60.238281 72.652344 L 60.238281 72.546875 C 60.289062 71.378906 60.175781 70.210938 59.894531 69.078125 C 59.808594 68.722656 59.703125 68.371094 59.585938 68.027344 L 59.9375 68.027344 C 60.140625 68.058594 60.332031 68.136719 60.5 68.257812 C 60.617188 68.355469 60.707031 68.476562 60.769531 68.613281 L 60.964844 68.53125 C 61.742188 71.71875 63.019531 74.757812 64.757812 77.539062 C 64.980469 77.855469 65.15625 78.207031 65.28125 78.574219 C 65.335938 78.773438 65.363281 78.976562 65.371094 79.183594 C 65.386719 79.3125 65.386719 79.46875 65.386719 79.628906 Z M 65.386719 79.628906 "/>
<path style=" stroke:none;fill-rule:nonzero;fill:rgb(98.431373%,74.509804%,74.509804%);fill-opacity:1;" d="M 60.675781 59.292969 C 60.675781 62.8125 57.832031 65.664062 54.324219 65.664062 C 50.816406 65.664062 47.972656 62.8125 47.972656 59.292969 C 47.972656 55.773438 50.816406 52.921875 54.324219 52.921875 C 57.832031 52.921875 60.675781 55.773438 60.675781 59.292969 Z M 60.675781 59.292969 "/>
<path style=" stroke:none;fill-rule:nonzero;fill:rgb(98.431373%,74.509804%,74.509804%);fill-opacity:1;" d="M 43.035156 73.460938 C 42.214844 74.710938 41.9375 76.230469 41.6875 77.707031 L 40.097656 86.957031 C 39.878906 88.222656 39.683594 89.613281 40.332031 90.722656 C 40.550781 91.097656 40.855469 91.421875 41.015625 91.820312 C 41.136719 92.21875 41.214844 92.632812 41.253906 93.046875 C 41.625 95.167969 43.703125 96.597656 45.789062 97.113281 C 46.542969 97.300781 47.421875 97.371094 48.015625 96.867188 C 48.675781 96.320312 48.675781 95.28125 48.285156 94.527344 C 47.898438 93.777344 47.191406 93.246094 46.507812 92.742188 L 44.234375 91.0625 L 45.546875 80.957031 C 45.636719 80.230469 44.046875 71.90625 43.035156 73.460938 Z M 43.035156 73.460938 "/>
<path style=" stroke:none;fill-rule:nonzero;fill:rgb(98.431373%,74.509804%,74.509804%);fill-opacity:1;" d="M 68.929688 73.695312 C 69.277344 75.222656 69.453125 76.789062 69.886719 78.289062 C 70.054688 78.882812 70.265625 79.460938 70.410156 80.046875 C 70.566406 80.746094 70.675781 81.457031 70.742188 82.171875 L 71.355469 87.632812 C 71.429688 87.96875 71.402344 88.320312 71.28125 88.644531 C 71.113281 88.925781 70.867188 89.148438 70.570312 89.289062 C 68.796875 90.289062 66.710938 90.582031 64.730469 90.113281 C 64.273438 89.976562 63.8125 89.867188 63.34375 89.789062 C 62.59375 89.691406 61.832031 89.84375 61.074219 89.789062 C 59.542969 89.671875 58.195312 88.714844 57.132812 87.601562 C 56.492188 86.941406 55.910156 85.863281 56.507812 85.152344 C 56.847656 84.808594 57.335938 84.65625 57.8125 84.757812 C 58.273438 84.863281 58.722656 85.03125 59.140625 85.257812 C 60.605469 85.9375 62.175781 86.371094 63.78125 86.539062 C 64.878906 86.65625 66.269531 86.46875 66.648438 85.421875 C 66.832031 84.914062 66.703125 84.351562 66.574219 83.828125 L 65.515625 79.511719 C 65.472656 79.359375 68.582031 72.171875 68.929688 73.695312 Z M 68.929688 73.695312 "/>
<path style=" stroke:none;fill-rule:nonzero;fill:rgb(24.705882%,23.921569%,33.72549%);fill-opacity:1;" d="M 50.390625 61.253906 C 50.109375 60.238281 49.710938 58.964844 50.507812 58.273438 C 50.792969 58.054688 51.136719 57.921875 51.5 57.894531 C 53.285156 57.675781 55.128906 58.730469 56.839844 58.167969 C 57.953125 57.800781 58.746094 56.816406 58.871094 55.648438 C 58.992188 54.480469 58.417969 53.347656 57.40625 52.757812 C 56.660156 52.320312 55.765625 52.234375 54.90625 52.15625 C 52.640625 51.949219 50.277344 51.753906 48.15625 52.59375 C 46.035156 53.4375 44.246094 55.601562 44.6875 57.847656 C 44.890625 58.917969 45.546875 59.835938 46.21875 60.691406 C 46.734375 61.335938 48.800781 64.425781 49.628906 64.378906 C 50.800781 64.316406 50.574219 61.914062 50.390625 61.253906 Z M 50.390625 61.253906 "/>
<use xlink:href="#surface32" mask="url(#mask9)"/>
<path style=" stroke:none;fill-rule:nonzero;fill:rgb(24.705882%,23.921569%,33.72549%);fill-opacity:1;" d="M 79.296875 132.015625 L 150.703125 132.015625 L 150.703125 154.207031 L 79.296875 154.207031 Z M 79.296875 132.015625 "/>
<path style=" stroke:none;fill-rule:nonzero;fill:rgb(100%,100%,100%);fill-opacity:1;" d="M 111.933594 139.1875 L 111.933594 147.03125 L 118.066406 143.109375 Z M 111.933594 139.1875 "/>
<path style=" stroke:none;fill-rule:nonzero;fill:rgb(94.901961%,94.901961%,94.901961%);fill-opacity:1;" d="M 57.171875 7.5 L 53.773438 9.660156 L 55.835938 5.898438 C 55.25 5.429688 54.527344 5.167969 53.777344 5.160156 L 53.722656 5.160156 C 53.488281 5.164062 53.25 5.148438 53.019531 5.109375 L 51.867188 5.839844 L 52.359375 4.9375 C 51.542969 4.652344 50.839844 4.113281 50.347656 3.402344 L 48.28125 4.71875 L 49.585938 2.34375 C 48.378906 0.890625 46.753906 0.00390625 44.964844 0.00390625 C 42.820312 0.00390625 40.910156 1.28125 39.679688 3.273438 C 38.9375 4.492188 37.597656 5.214844 36.171875 5.164062 L 36.058594 5.164062 C 33.691406 5.164062 31.769531 7.855469 31.769531 11.175781 C 31.769531 14.5 33.691406 17.191406 36.058594 17.191406 C 36.578125 17.1875 37.089844 17.058594 37.550781 16.8125 C 39.183594 16.019531 41.078125 15.980469 42.738281 16.714844 C 44.140625 17.34375 45.746094 17.34375 47.148438 16.714844 C 48.796875 15.996094 50.675781 16.035156 52.292969 16.8125 C 52.75 17.054688 53.253906 17.179688 53.769531 17.179688 C 56.136719 17.179688 58.054688 14.488281 58.054688 11.167969 C 58.074219 9.890625 57.769531 8.628906 57.171875 7.5 Z M 57.171875 7.5 "/>
<use xlink:href="#surface35" mask="url(#mask10)"/>
<path style=" stroke:none;fill-rule:nonzero;fill:rgb(94.901961%,94.901961%,94.901961%);fill-opacity:1;" d="M 173.484375 56.503906 L 171.789062 57.582031 L 172.820312 55.703125 C 172.527344 55.46875 172.167969 55.339844 171.792969 55.335938 L 171.765625 55.335938 C 171.648438 55.335938 171.53125 55.328125 171.414062 55.3125 L 170.832031 55.679688 L 171.078125 55.230469 C 170.671875 55.089844 170.320312 54.820312 170.074219 54.464844 L 169.042969 55.125 L 169.699219 53.941406 C 169.148438 53.222656 168.300781 52.792969 167.394531 52.769531 C 166.328125 52.769531 165.375 53.410156 164.769531 54.402344 C 164.394531 55.011719 163.726562 55.371094 163.015625 55.347656 L 162.957031 55.347656 C 161.777344 55.347656 160.820312 56.691406 160.820312 58.34375 C 160.820312 60 161.777344 61.347656 162.957031 61.347656 C 163.21875 61.34375 163.472656 61.28125 163.703125 61.160156 C 164.515625 60.761719 165.460938 60.742188 166.289062 61.105469 C 166.632812 61.261719 167.007812 61.34375 167.386719 61.347656 C 167.761719 61.34375 168.136719 61.265625 168.480469 61.113281 C 169.300781 60.757812 170.238281 60.773438 171.046875 61.160156 C 171.273438 61.28125 171.523438 61.34375 171.78125 61.347656 C 172.960938 61.347656 173.917969 60.003906 173.917969 58.34375 C 173.933594 57.703125 173.78125 57.070312 173.484375 56.503906 Z M 173.484375 56.503906 "/>
<use xlink:href="#surface38" mask="url(#mask11)"/>
<path style=" stroke:none;fill-rule:nonzero;fill:rgb(94.901961%,94.901961%,94.901961%);fill-opacity:1;" d="M 177.238281 28.488281 L 179.960938 30.222656 L 178.304688 27.203125 C 178.773438 26.828125 179.351562 26.621094 179.953125 26.617188 L 179.996094 26.617188 C 180.183594 26.617188 180.375 26.605469 180.5625 26.574219 L 181.484375 27.160156 L 181.089844 26.441406 C 181.742188 26.210938 182.308594 25.777344 182.703125 25.210938 L 184.355469 26.257812 L 183.3125 24.355469 C 184.277344 23.191406 185.582031 22.480469 187.015625 22.480469 C 188.734375 22.480469 190.261719 23.503906 191.25 25.101562 C 191.84375 26.074219 192.914062 26.652344 194.050781 26.617188 L 194.144531 26.617188 C 196.042969 26.617188 197.578125 28.773438 197.578125 31.433594 C 197.578125 34.09375 196.046875 36.25 194.144531 36.25 C 193.726562 36.25 193.316406 36.144531 192.949219 35.949219 C 191.640625 35.3125 190.117188 35.28125 188.785156 35.871094 C 187.660156 36.375 186.378906 36.375 185.253906 35.871094 C 183.933594 35.292969 182.429688 35.324219 181.132812 35.949219 C 180.765625 36.140625 180.359375 36.242188 179.949219 36.242188 C 178.050781 36.242188 176.511719 34.085938 176.511719 31.425781 C 176.507812 30.398438 176.753906 29.390625 177.238281 28.488281 Z M 177.238281 28.488281 "/>
<use xlink:href="#surface41" mask="url(#mask12)"/>
</g>
</svg>
