<?xml version="1.0" encoding="UTF-8"?>
<svg xmlns="http://www.w3.org/2000/svg" xmlns:xlink="http://www.w3.org/1999/xlink" width="240px" height="167px" viewBox="0 0 239 167" version="1.1">
<g id="surface1">
<path style=" stroke:none;fill-rule:nonzero;fill:rgb(100%,71.372549%,71.372549%);fill-opacity:1;" d="M 63.21875 16.238281 L 69.339844 22.019531 L 66.53125 25.984375 L 60.277344 19.640625 C 60.007812 19.625 59.734375 19.566406 59.464844 19.464844 C 58.011719 18.910156 57.28125 17.28125 57.835938 15.824219 C 58.390625 14.367188 60.015625 13.636719 61.46875 14.191406 C 62.394531 14.542969 63.023438 15.335938 63.21875 16.238281 Z M 63.21875 16.238281 "/>
<path style=" stroke:none;fill-rule:nonzero;fill:rgb(100%,71.372549%,71.372549%);fill-opacity:1;" d="M 43.15625 161.707031 L 47.574219 161.703125 L 49.671875 144.636719 L 43.15625 144.636719 Z M 43.15625 161.707031 "/>
<path style=" stroke:none;fill-rule:nonzero;fill:rgb(18.431373%,18.039216%,25.490196%);fill-opacity:1;" d="M 43.003906 166.320312 L 56.578125 166.320312 L 56.578125 166.148438 C 56.578125 163.222656 54.214844 160.851562 51.296875 160.851562 L 51.292969 160.851562 L 48.816406 158.96875 L 44.1875 160.851562 L 43.003906 160.851562 Z M 43.003906 166.320312 "/>
<path style=" stroke:none;fill-rule:nonzero;fill:rgb(100%,71.372549%,71.372549%);fill-opacity:1;" d="M 53.449219 157.03125 L 57.585938 158.574219 L 65.492188 143.3125 L 59.386719 141.035156 Z M 53.449219 157.03125 "/>
<path style=" stroke:none;fill-rule:nonzero;fill:rgb(18.431373%,18.039216%,25.490196%);fill-opacity:1;" d="M 51.699219 161.304688 L 64.421875 166.046875 L 64.484375 165.886719 C 65.5 163.144531 64.105469 160.097656 61.371094 159.078125 L 59.703125 156.441406 L 54.710938 156.59375 L 53.597656 156.179688 Z M 51.699219 161.304688 "/>
<path style=" stroke:none;fill-rule:nonzero;fill:rgb(18.431373%,18.039216%,25.490196%);fill-opacity:1;" d="M 61.8125 73.359375 L 70.769531 124.433594 L 62.371094 156.144531 L 54.53125 153.058594 L 55.652344 150.53125 L 53.96875 147.164062 L 56.492188 130.328125 L 56.496094 119.566406 L 49.492188 98.054688 L 47.53125 133.414062 L 50.609375 151.09375 L 50.03125 156.144531 L 40.808594 157.265625 L 41.929688 153.617188 L 36.050781 135.9375 L 37.167969 132.570312 L 29.328125 91.320312 L 31.289062 78.128906 Z M 61.8125 73.359375 "/>
<path style=" stroke:none;fill-rule:nonzero;fill:rgb(25.882353%,66.666667%,22.352941%);fill-opacity:1;" d="M 35.351562 22.988281 L 46.511719 22.988281 L 49.910156 28.601562 L 53.550781 27.757812 L 55.394531 28.601562 L 63.628906 30.285156 L 61.109375 45.15625 L 60.550781 62.277344 L 60.832031 69.570312 C 63.773438 71.726562 63.015625 74.699219 62.363281 78.011719 C 62.363281 78.011719 34.230469 85.722656 29.75 83.257812 L 29.75 80.078125 L 32.410156 58.769531 L 22.609375 34.632812 C 22.179688 31.332031 25.664062 30.4375 28.910156 29.722656 L 32.269531 28.601562 Z M 35.351562 22.988281 "/>
<path style=" stroke:none;fill-rule:nonzero;fill:rgb(25.882353%,66.666667%,22.352941%);fill-opacity:1;" d="M 61.109375 32.25 L 63.628906 30.285156 L 69.363281 32.25 L 67.269531 28.882812 L 67.269531 27.257812 L 63.910156 26.355469 L 63.628906 23.832031 L 61.109375 21.851562 L 65.238281 17.078125 L 68.25 19.621094 L 70.070312 19.621094 L 72.574219 22.132812 L 81.554688 34.417969 C 83.464844 37.03125 82.914062 40.773438 80.230469 42.574219 C 79.199219 43.269531 77.960938 43.753906 76.511719 43.753906 L 60.632812 43.753906 Z M 61.109375 32.25 "/>
<path style=" stroke:none;fill-rule:nonzero;fill:rgb(100%,71.372549%,71.372549%);fill-opacity:1;" d="M 50.375 12.824219 C 50.375 17.46875 46.621094 21.234375 41.988281 21.234375 C 37.355469 21.234375 33.597656 17.46875 33.597656 12.824219 C 33.597656 8.183594 37.355469 4.417969 41.988281 4.417969 C 46.621094 4.417969 50.375 8.183594 50.375 12.824219 Z M 50.375 12.824219 "/>
<path style=" stroke:none;fill-rule:nonzero;fill:rgb(100%,71.372549%,71.372549%);fill-opacity:1;" d="M 25.859375 88.035156 L 25.664062 79.609375 L 30.449219 78.824219 L 30.34375 87.738281 C 30.519531 87.945312 30.671875 88.179688 30.789062 88.445312 C 31.417969 89.867188 30.773438 91.535156 29.351562 92.164062 C 27.929688 92.792969 26.265625 92.148438 25.636719 90.722656 C 25.238281 89.816406 25.355469 88.808594 25.859375 88.035156 Z M 25.859375 88.035156 "/>
<path style=" stroke:none;fill-rule:nonzero;fill:rgb(25.882353%,66.666667%,22.352941%);fill-opacity:1;" d="M 25.71875 31.941406 C 23.832031 31.832031 22.304688 33.460938 22.53125 35.34375 L 17.949219 60.929688 L 17.21875 62.46875 L 18.054688 63.332031 L 18.230469 65.316406 L 25.207031 83.777344 L 33.925781 84.101562 L 30.675781 45.472656 L 28.421875 33.996094 C 28.019531 32.824219 26.953125 32.011719 25.71875 31.941406 Z M 25.71875 31.941406 "/>
<path style=" stroke:none;fill-rule:nonzero;fill:rgb(100%,39.607843%,51.764706%);fill-opacity:1;" d="M 34.566406 83.851562 C 34.648438 89.917969 32.046875 91.214844 27.847656 89.945312 C 24.292969 88.871094 21.125 87.570312 21.125 83.851562 C 21.125 80.128906 23.285156 74.628906 27.847656 76.472656 C 31.925781 74.230469 36.613281 79.550781 34.566406 83.851562 Z M 34.566406 83.851562 "/>
<path style=" stroke:none;fill-rule:nonzero;fill:rgb(24.705882%,23.921569%,33.72549%);fill-opacity:1;" d="M 27.605469 76.625 C 27.066406 75.648438 27.03125 74.453125 27.527344 73.449219 C 27.972656 72.558594 28.851562 71.894531 29.820312 71.683594 C 30.347656 71.570312 30.574219 72.382812 30.042969 72.496094 C 29.289062 72.660156 28.851562 75.761719 28.488281 76.445312 C 28.101562 77.183594 27.933594 75.476562 28.328125 76.199219 C 28.589844 76.675781 27.863281 77.101562 27.605469 76.625 Z M 27.605469 76.625 "/>
<path style=" stroke:none;fill-rule:nonzero;fill:rgb(100%,39.607843%,51.764706%);fill-opacity:1;" d="M 68.167969 10.609375 C 68.167969 14.328125 65.648438 17.972656 61.445312 16.703125 C 57.894531 15.628906 53.363281 16.074219 56.886719 9.800781 C 52.191406 7.449219 56.886719 1.386719 61.445312 3.230469 C 65.527344 0.988281 68.167969 6.886719 68.167969 10.609375 Z M 68.167969 10.609375 "/>
<path style=" stroke:none;fill-rule:nonzero;fill:rgb(24.705882%,23.921569%,33.72549%);fill-opacity:1;" d="M 61.203125 3.382812 C 59.570312 3.765625 60.410156 3.929688 61.128906 1.777344 C 61.445312 0.832031 62.453125 0.21875 63.421875 0.0117188 C 63.949219 -0.101562 64.171875 0.707031 63.644531 0.824219 C 62.890625 0.984375 62.246094 1.457031 61.882812 2.144531 C 61.496094 2.882812 61.535156 2.234375 61.929688 2.957031 C 62.191406 3.433594 61.464844 3.859375 61.203125 3.382812 Z M 61.203125 3.382812 "/>
<path style=" stroke:none;fill-rule:nonzero;fill:rgb(94.901961%,94.901961%,94.901961%);fill-opacity:1;" d="M 21.222656 160.042969 C 20.414062 160.09375 19.96875 159.089844 20.582031 158.503906 L 20.640625 158.261719 C 20.632812 158.242188 20.625 158.222656 20.617188 158.203125 C 19.800781 156.25 17.03125 156.261719 16.21875 158.21875 C 15.5 159.953125 14.585938 161.691406 14.359375 163.527344 C 14.257812 164.339844 14.304688 165.164062 14.484375 165.960938 C 12.796875 162.269531 11.910156 158.242188 11.910156 154.191406 C 11.910156 153.171875 11.96875 152.15625 12.082031 151.140625 C 12.175781 150.308594 12.304688 149.484375 12.46875 148.664062 C 13.371094 144.246094 15.324219 140.035156 18.140625 136.515625 C 19.496094 135.773438 20.625 134.617188 21.308594 133.226562 C 21.550781 132.722656 21.746094 132.183594 21.835938 131.636719 C 21.679688 131.65625 21.253906 129.304688 21.371094 129.160156 C 21.15625 128.832031 20.773438 128.671875 20.535156 128.351562 C 19.371094 126.765625 17.761719 127.042969 16.925781 129.195312 C 15.132812 130.105469 15.113281 131.605469 16.214844 133.054688 C 16.914062 133.972656 17.011719 135.21875 17.625 136.203125 C 17.5625 136.285156 17.496094 136.363281 17.433594 136.445312 C 16.273438 137.933594 15.273438 139.53125 14.425781 141.214844 C 14.667969 139.34375 14.3125 137.09375 13.714844 135.644531 C 13.027344 133.992188 11.746094 132.597656 10.617188 131.167969 C 9.261719 129.453125 6.484375 130.203125 6.242188 132.378906 C 6.242188 132.398438 6.238281 132.417969 6.238281 132.441406 C 6.40625 132.535156 6.570312 132.636719 6.730469 132.742188 C 7.644531 133.347656 7.328125 134.769531 6.242188 134.9375 L 6.21875 134.941406 C 6.28125 135.546875 6.382812 136.148438 6.535156 136.738281 C 5.085938 142.347656 8.214844 144.394531 12.675781 144.484375 C 12.777344 144.535156 12.871094 144.585938 12.96875 144.636719 C 12.519531 145.910156 12.15625 147.21875 11.890625 148.546875 C 11.648438 149.71875 11.480469 150.902344 11.390625 152.09375 C 11.273438 153.59375 11.28125 155.105469 11.410156 156.605469 L 11.402344 156.550781 C 11.082031 154.898438 10.1875 153.359375 8.886719 152.289062 C 6.953125 150.695312 4.21875 150.109375 2.132812 148.828125 C 1.128906 148.214844 -0.160156 149.011719 0.015625 150.175781 L 0.0234375 150.234375 C 0.335938 150.359375 0.636719 150.507812 0.933594 150.671875 C 1.097656 150.765625 1.261719 150.867188 1.425781 150.972656 C 2.339844 151.578125 2.023438 153 0.9375 153.167969 L 0.914062 153.171875 C 0.894531 153.175781 0.882812 153.179688 0.863281 153.179688 C 1.398438 154.449219 2.140625 155.625 3.070312 156.640625 C 3.972656 161.539062 7.863281 162.003906 12.023438 160.578125 C 12.480469 162.5625 13.144531 164.503906 14 166.351562 L 21.046875 166.351562 C 21.074219 166.273438 21.09375 166.191406 21.117188 166.113281 C 20.464844 166.152344 19.808594 166.117188 19.167969 165.996094 C 19.691406 165.355469 20.214844 164.707031 20.738281 164.0625 C 20.75 164.050781 20.757812 164.039062 20.769531 164.023438 C 21.035156 163.695312 21.300781 163.367188 21.566406 163.039062 C 21.585938 162.027344 21.464844 161.023438 21.222656 160.042969 Z M 21.222656 160.042969 "/>
<path style=" stroke:none;fill-rule:nonzero;fill:rgb(80%,80%,80%);fill-opacity:1;" d="M 100.0625 166.371094 C 100.0625 166.632812 99.855469 166.839844 99.597656 166.839844 L 0.519531 166.839844 C 0.261719 166.839844 0.0546875 166.632812 0.0546875 166.371094 C 0.0546875 166.113281 0.261719 165.90625 0.519531 165.90625 L 99.597656 165.90625 C 99.855469 165.90625 100.0625 166.113281 100.0625 166.371094 Z M 100.0625 166.371094 "/>
<path style=" stroke:none;fill-rule:nonzero;fill:rgb(94.901961%,94.901961%,94.901961%);fill-opacity:1;" d="M 199.074219 15.597656 C 199.074219 15.167969 198.722656 14.816406 198.289062 14.816406 L 186.164062 14.816406 C 185.734375 14.816406 185.382812 15.167969 185.382812 15.597656 C 185.382812 16.03125 185.734375 16.382812 186.164062 16.382812 L 198.289062 16.382812 C 198.722656 16.382812 199.074219 16.03125 199.074219 15.597656 Z M 199.074219 15.597656 "/>
<path style=" stroke:none;fill-rule:nonzero;fill:rgb(94.901961%,94.901961%,94.901961%);fill-opacity:1;" d="M 219.023438 15.679688 C 219.023438 15.25 218.671875 14.898438 218.238281 14.898438 L 206.113281 14.898438 C 205.683594 14.898438 205.332031 15.25 205.332031 15.679688 C 205.332031 16.113281 205.683594 16.464844 206.113281 16.464844 L 218.238281 16.464844 C 218.671875 16.464844 219.023438 16.113281 219.023438 15.679688 Z M 219.023438 15.679688 "/>
<path style=" stroke:none;fill-rule:nonzero;fill:rgb(94.901961%,94.901961%,94.901961%);fill-opacity:1;" d="M 238.972656 15.761719 C 238.972656 15.328125 238.621094 14.976562 238.1875 14.976562 L 226.0625 14.976562 C 225.632812 14.976562 225.28125 15.328125 225.28125 15.761719 C 225.28125 16.195312 225.632812 16.546875 226.0625 16.546875 L 238.1875 16.546875 C 238.621094 16.546875 238.972656 16.195312 238.972656 15.761719 Z M 238.972656 15.761719 "/>
<path style=" stroke:none;fill-rule:nonzero;fill:rgb(94.901961%,94.901961%,94.901961%);fill-opacity:1;" d="M 219.023438 33.320312 C 219.023438 32.890625 218.671875 32.539062 218.238281 32.539062 L 206.113281 32.539062 C 205.683594 32.539062 205.332031 32.890625 205.332031 33.320312 C 205.332031 33.753906 205.683594 34.105469 206.113281 34.105469 L 218.238281 34.105469 C 218.671875 34.105469 219.023438 33.753906 219.023438 33.320312 Z M 219.023438 33.320312 "/>
<path style=" stroke:none;fill-rule:nonzero;fill:rgb(94.901961%,94.901961%,94.901961%);fill-opacity:1;" d="M 179.125 33.320312 C 179.125 32.890625 178.773438 32.539062 178.339844 32.539062 L 166.214844 32.539062 C 165.785156 32.539062 165.433594 32.890625 165.433594 33.320312 C 165.433594 33.753906 165.785156 34.105469 166.214844 34.105469 L 178.339844 34.105469 C 178.773438 34.105469 179.125 33.753906 179.125 33.320312 Z M 179.125 33.320312 "/>
<path style=" stroke:none;fill-rule:nonzero;fill:rgb(94.901961%,94.901961%,94.901961%);fill-opacity:1;" d="M 199.074219 33.402344 C 199.074219 32.972656 198.722656 32.617188 198.289062 32.617188 L 186.164062 32.617188 C 185.734375 32.617188 185.382812 32.972656 185.382812 33.402344 C 185.382812 33.835938 185.734375 34.1875 186.164062 34.1875 L 198.289062 34.1875 C 198.722656 34.1875 199.074219 33.835938 199.074219 33.402344 Z M 199.074219 33.402344 "/>
<path style=" stroke:none;fill-rule:nonzero;fill:rgb(94.901961%,94.901961%,94.901961%);fill-opacity:1;" d="M 219.023438 51.355469 C 219.023438 50.921875 218.671875 50.570312 218.238281 50.570312 L 206.113281 50.570312 C 205.683594 50.570312 205.332031 50.921875 205.332031 51.355469 C 205.332031 51.785156 205.683594 52.136719 206.113281 52.136719 L 218.238281 52.136719 C 218.671875 52.136719 219.023438 51.785156 219.023438 51.355469 Z M 219.023438 51.355469 "/>
<path style=" stroke:none;fill-rule:nonzero;fill:rgb(94.901961%,94.901961%,94.901961%);fill-opacity:1;" d="M 238.972656 51.4375 C 238.972656 51.003906 238.621094 50.652344 238.1875 50.652344 L 226.0625 50.652344 C 225.632812 50.652344 225.28125 51.003906 225.28125 51.4375 C 225.28125 51.867188 225.632812 52.21875 226.0625 52.21875 L 238.1875 52.21875 C 238.621094 52.21875 238.972656 51.867188 238.972656 51.4375 Z M 238.972656 51.4375 "/>
<path style=" stroke:none;fill-rule:nonzero;fill:rgb(94.901961%,94.901961%,94.901961%);fill-opacity:1;" d="M 159.175781 51.273438 C 159.175781 50.839844 158.824219 50.488281 158.390625 50.488281 L 146.265625 50.488281 C 145.835938 50.488281 145.484375 50.839844 145.484375 51.273438 C 145.484375 51.707031 145.835938 52.058594 146.265625 52.058594 L 158.390625 52.058594 C 158.824219 52.058594 159.175781 51.707031 159.175781 51.273438 Z M 159.175781 51.273438 "/>
<path style=" stroke:none;fill-rule:nonzero;fill:rgb(94.901961%,94.901961%,94.901961%);fill-opacity:1;" d="M 179.125 51.355469 C 179.125 50.921875 178.773438 50.570312 178.339844 50.570312 L 166.214844 50.570312 C 165.785156 50.570312 165.433594 50.921875 165.433594 51.355469 C 165.433594 51.785156 165.785156 52.136719 166.214844 52.136719 L 178.339844 52.136719 C 178.773438 52.136719 179.125 51.785156 179.125 51.355469 Z M 179.125 51.355469 "/>
<path style=" stroke:none;fill-rule:nonzero;fill:rgb(94.901961%,94.901961%,94.901961%);fill-opacity:1;" d="M 199.074219 51.4375 C 199.074219 51.003906 198.722656 50.652344 198.289062 50.652344 L 186.164062 50.652344 C 185.734375 50.652344 185.382812 51.003906 185.382812 51.4375 C 185.382812 51.867188 185.734375 52.21875 186.164062 52.21875 L 198.289062 52.21875 C 198.722656 52.21875 199.074219 51.867188 199.074219 51.4375 Z M 199.074219 51.4375 "/>
<path style=" stroke:none;fill-rule:nonzero;fill:rgb(94.901961%,94.901961%,94.901961%);fill-opacity:1;" d="M 197.203125 7.042969 C 197.203125 4.398438 195.019531 2.257812 192.328125 2.257812 C 189.632812 2.257812 187.453125 4.398438 187.453125 7.042969 C 187.453125 9.683594 189.632812 11.824219 192.328125 11.824219 C 195.019531 11.824219 197.203125 9.683594 197.203125 7.042969 Z M 197.203125 7.042969 "/>
<path style=" stroke:none;fill-rule:nonzero;fill:rgb(100%,100%,100%);fill-opacity:1;" d="M 191.96875 9.015625 L 191.957031 9.015625 C 191.828125 9.011719 191.707031 8.945312 191.636719 8.835938 L 189.984375 6.238281 C 189.867188 6.054688 189.921875 5.8125 190.105469 5.695312 C 190.285156 5.582031 190.527344 5.632812 190.644531 5.816406 L 191.988281 7.925781 L 194.507812 4.410156 C 194.636719 4.234375 194.878906 4.195312 195.054688 4.320312 C 195.230469 4.445312 195.269531 4.691406 195.144531 4.867188 L 192.285156 8.851562 C 192.210938 8.957031 192.09375 9.015625 191.96875 9.015625 Z M 191.96875 9.015625 "/>
<path style=" stroke:none;fill-rule:nonzero;fill:rgb(94.901961%,94.901961%,94.901961%);fill-opacity:1;" d="M 217.933594 7.042969 C 217.933594 4.398438 215.75 2.257812 213.058594 2.257812 C 210.367188 2.257812 208.183594 4.398438 208.183594 7.042969 C 208.183594 9.683594 210.367188 11.824219 213.058594 11.824219 C 215.75 11.824219 217.933594 9.683594 217.933594 7.042969 Z M 217.933594 7.042969 "/>
<path style=" stroke:none;fill-rule:nonzero;fill:rgb(100%,100%,100%);fill-opacity:1;" d="M 212.699219 9.015625 L 212.6875 9.015625 C 212.558594 9.011719 212.4375 8.945312 212.367188 8.835938 L 210.714844 6.238281 C 210.601562 6.054688 210.652344 5.8125 210.835938 5.695312 C 211.019531 5.582031 211.261719 5.632812 211.375 5.816406 L 212.71875 7.925781 L 215.238281 4.410156 C 215.367188 4.234375 215.609375 4.195312 215.785156 4.320312 C 215.960938 4.445312 216 4.691406 215.875 4.867188 L 213.015625 8.851562 C 212.941406 8.957031 212.824219 9.015625 212.699219 9.015625 Z M 212.699219 9.015625 "/>
<path style=" stroke:none;fill-rule:nonzero;fill:rgb(94.901961%,94.901961%,94.901961%);fill-opacity:1;" d="M 237.101562 6.648438 C 237.101562 4.007812 234.917969 1.867188 232.226562 1.867188 C 229.53125 1.867188 227.351562 4.007812 227.351562 6.648438 C 227.351562 9.292969 229.53125 11.433594 232.226562 11.433594 C 234.917969 11.433594 237.101562 9.292969 237.101562 6.648438 Z M 237.101562 6.648438 "/>
<path style=" stroke:none;fill-rule:nonzero;fill:rgb(100%,100%,100%);fill-opacity:1;" d="M 231.867188 8.625 L 231.855469 8.625 C 231.726562 8.621094 231.605469 8.554688 231.535156 8.441406 L 229.882812 5.847656 C 229.765625 5.664062 229.820312 5.421875 230.003906 5.304688 C 230.183594 5.1875 230.425781 5.242188 230.542969 5.425781 L 231.886719 7.535156 L 234.40625 4.019531 C 234.535156 3.84375 234.777344 3.800781 234.953125 3.929688 C 235.128906 4.054688 235.167969 4.300781 235.042969 4.476562 L 232.183594 8.460938 C 232.109375 8.5625 231.992188 8.625 231.867188 8.625 Z M 231.867188 8.625 "/>
<path style=" stroke:none;fill-rule:nonzero;fill:rgb(94.901961%,94.901961%,94.901961%);fill-opacity:1;" d="M 238.972656 32.226562 C 238.972656 31.792969 238.621094 31.441406 238.1875 31.441406 L 226.0625 31.441406 C 225.632812 31.441406 225.28125 31.792969 225.28125 32.226562 C 225.28125 32.660156 225.632812 33.011719 226.0625 33.011719 L 238.1875 33.011719 C 238.621094 33.011719 238.972656 32.660156 238.972656 32.226562 Z M 238.972656 32.226562 "/>
<path style=" stroke:none;fill-rule:nonzero;fill:rgb(94.901961%,94.901961%,94.901961%);fill-opacity:1;" d="M 237.101562 23.113281 C 237.101562 20.472656 234.917969 18.332031 232.226562 18.332031 C 229.53125 18.332031 227.351562 20.472656 227.351562 23.113281 C 227.351562 25.757812 229.53125 27.898438 232.226562 27.898438 C 234.917969 27.898438 237.101562 25.757812 237.101562 23.113281 Z M 237.101562 23.113281 "/>
<path style=" stroke:none;fill-rule:nonzero;fill:rgb(100%,100%,100%);fill-opacity:1;" d="M 231.867188 25.089844 L 231.855469 25.089844 C 231.726562 25.085938 231.605469 25.019531 231.535156 24.90625 L 229.882812 22.3125 C 229.765625 22.128906 229.820312 21.886719 230.003906 21.769531 C 230.183594 21.652344 230.425781 21.707031 230.542969 21.890625 L 231.886719 24 L 234.40625 20.484375 C 234.535156 20.308594 234.777344 20.265625 234.953125 20.394531 C 235.128906 20.519531 235.167969 20.765625 235.042969 20.941406 L 232.183594 24.925781 C 232.109375 25.027344 231.992188 25.089844 231.867188 25.089844 Z M 231.867188 25.089844 "/>
<path style=" stroke:none;fill-rule:nonzero;fill:rgb(94.901961%,94.901961%,94.901961%);fill-opacity:1;" d="M 217.152344 25.859375 C 217.152344 23.21875 214.96875 21.074219 212.277344 21.074219 C 209.582031 21.074219 207.402344 23.21875 207.402344 25.859375 C 207.402344 28.5 209.582031 30.640625 212.277344 30.640625 C 214.96875 30.640625 217.152344 28.5 217.152344 25.859375 Z M 217.152344 25.859375 "/>
<path style=" stroke:none;fill-rule:nonzero;fill:rgb(100%,100%,100%);fill-opacity:1;" d="M 211.917969 27.832031 L 211.90625 27.832031 C 211.777344 27.828125 211.65625 27.761719 211.585938 27.652344 L 209.933594 25.054688 C 209.816406 24.871094 209.871094 24.628906 210.054688 24.511719 C 210.234375 24.398438 210.476562 24.449219 210.59375 24.632812 L 211.9375 26.742188 L 214.457031 23.226562 C 214.585938 23.050781 214.828125 23.011719 215.003906 23.136719 C 215.179688 23.265625 215.21875 23.507812 215.09375 23.683594 L 212.234375 27.671875 C 212.160156 27.773438 212.042969 27.832031 211.917969 27.832031 Z M 211.917969 27.832031 "/>
<path style=" stroke:none;fill-rule:nonzero;fill:rgb(94.901961%,94.901961%,94.901961%);fill-opacity:1;" d="M 197.59375 25.859375 C 197.59375 23.21875 195.410156 21.074219 192.71875 21.074219 C 190.027344 21.074219 187.84375 23.21875 187.84375 25.859375 C 187.84375 28.5 190.027344 30.640625 192.71875 30.640625 C 195.410156 30.640625 197.59375 28.5 197.59375 25.859375 Z M 197.59375 25.859375 "/>
<path style=" stroke:none;fill-rule:nonzero;fill:rgb(100%,100%,100%);fill-opacity:1;" d="M 192.359375 27.832031 L 192.347656 27.832031 C 192.21875 27.828125 192.097656 27.761719 192.027344 27.652344 L 190.375 25.054688 C 190.261719 24.871094 190.3125 24.628906 190.496094 24.511719 C 190.679688 24.398438 190.917969 24.449219 191.035156 24.632812 L 192.378906 26.742188 L 194.898438 23.226562 C 195.027344 23.050781 195.269531 23.011719 195.445312 23.136719 C 195.621094 23.265625 195.660156 23.507812 195.535156 23.683594 L 192.675781 27.671875 C 192.601562 27.773438 192.484375 27.832031 192.359375 27.832031 Z M 192.359375 27.832031 "/>
<path style=" stroke:none;fill-rule:nonzero;fill:rgb(94.901961%,94.901961%,94.901961%);fill-opacity:1;" d="M 177.253906 25.859375 C 177.253906 23.21875 175.070312 21.074219 172.378906 21.074219 C 169.683594 21.074219 167.503906 23.21875 167.503906 25.859375 C 167.503906 28.5 169.683594 30.640625 172.378906 30.640625 C 175.070312 30.640625 177.253906 28.5 177.253906 25.859375 Z M 177.253906 25.859375 "/>
<path style=" stroke:none;fill-rule:nonzero;fill:rgb(100%,100%,100%);fill-opacity:1;" d="M 172.019531 27.832031 L 172.007812 27.832031 C 171.878906 27.828125 171.757812 27.761719 171.6875 27.652344 L 170.035156 25.054688 C 169.917969 24.871094 169.972656 24.628906 170.15625 24.511719 C 170.335938 24.398438 170.578125 24.449219 170.695312 24.632812 L 172.039062 26.742188 L 174.558594 23.226562 C 174.6875 23.050781 174.929688 23.011719 175.105469 23.136719 C 175.28125 23.265625 175.320312 23.507812 175.195312 23.683594 L 172.335938 27.671875 C 172.261719 27.773438 172.144531 27.832031 172.019531 27.832031 Z M 172.019531 27.832031 "/>
<path style=" stroke:none;fill-rule:nonzero;fill:rgb(24.705882%,23.921569%,33.72549%);fill-opacity:1;" d="M 169.984375 33.214844 C 169.984375 32.296875 169.238281 31.550781 168.324219 31.550781 L 142.59375 31.550781 C 141.675781 31.550781 140.933594 32.296875 140.933594 33.214844 C 140.933594 34.132812 141.675781 34.878906 142.59375 34.878906 L 168.324219 34.878906 C 169.238281 34.878906 169.984375 34.132812 169.984375 33.214844 Z M 169.984375 33.214844 "/>
<path style=" stroke:none;fill-rule:nonzero;fill:rgb(25.882353%,66.666667%,22.352941%);fill-opacity:1;" d="M 166.011719 17.207031 C 166.011719 11.601562 161.382812 7.054688 155.667969 7.054688 C 149.957031 7.054688 145.324219 11.601562 145.324219 17.207031 C 145.324219 22.808594 149.957031 27.355469 155.667969 27.355469 C 161.382812 27.355469 166.011719 22.808594 166.011719 17.207031 Z M 166.011719 17.207031 "/>
<path style=" stroke:none;fill-rule:nonzero;fill:rgb(100%,100%,100%);fill-opacity:1;" d="M 154.90625 21.394531 C 154.898438 21.394531 154.890625 21.394531 154.882812 21.394531 C 154.609375 21.386719 154.355469 21.242188 154.207031 21.011719 L 150.699219 15.5 C 150.453125 15.113281 150.566406 14.597656 150.953125 14.351562 C 151.339844 14.105469 151.851562 14.21875 152.101562 14.605469 L 154.945312 19.082031 L 160.296875 11.621094 C 160.566406 11.246094 161.085938 11.164062 161.457031 11.429688 C 161.828125 11.699219 161.914062 12.21875 161.644531 12.59375 L 155.582031 21.050781 C 155.425781 21.265625 155.171875 21.394531 154.90625 21.394531 Z M 154.90625 21.394531 "/>
<path style=" stroke:none;fill-rule:nonzero;fill:rgb(18.431373%,18.039216%,25.490196%);fill-opacity:1;" d="M 48.996094 6.085938 C 49.503906 6.335938 49.980469 6.652344 50.410156 7.011719 C 50.535156 7.117188 49.351562 7.257812 49.46875 7.367188 C 48.625 8.722656 52.132812 10.421875 50.640625 10.503906 C 50.34375 9.867188 45.753906 8.382812 45.257812 7.894531 C 45.328125 8.457031 47.1875 9.160156 47.121094 9.71875 C 45.449219 9.613281 41.726562 8.988281 39.6875 8.152344 C 40.917969 10.605469 40.925781 12.53125 38.125 13.25 C 36.027344 13.25 34.5625 15.332031 35.269531 17.308594 L 35.777344 18.738281 L 33.820312 16.777344 C 33.007812 15.960938 31.433594 14.03125 30.914062 11.972656 C 30.542969 10.496094 30.84375 8.945312 31.621094 7.632812 C 31.648438 7.585938 31.675781 7.539062 31.695312 7.492188 C 31.253906 7.695312 30.792969 7.855469 30.320312 7.960938 C 30.300781 7.105469 33.609375 5.523438 33.820312 5.015625 C 34.804688 2.660156 33.371094 2.664062 37.339844 2.664062 C 37.683594 2.433594 38.371094 2.824219 39.296875 2.664062 C 41 2.367188 41.707031 1.199219 43.820312 1.644531 C 45.648438 2.03125 47.425781 2.59375 48.800781 3.167969 L 49.46875 3.449219 C 49.871094 4.09375 50.035156 4.699219 50.011719 5.246094 C 49.976562 5.238281 49.9375 5.230469 49.902344 5.226562 C 49.210938 5.128906 49.675781 5.9375 48.996094 6.085938 Z M 48.996094 6.085938 "/>
</g>
</svg>
