<?xml version="1.0" encoding="UTF-8"?>
<svg xmlns="http://www.w3.org/2000/svg" xmlns:xlink="http://www.w3.org/1999/xlink" width="240px" height="181px" viewBox="0 0 239 181" version="1.1">
<g id="surface1">
<path style=" stroke:none;fill-rule:nonzero;fill:rgb(99.607843%,72.156863%,72.156863%);fill-opacity:1;" d="M 112.3125 151.984375 C 112.3125 151.984375 115.355469 146.984375 119.261719 149.941406 C 123.164062 152.898438 130.398438 157.890625 130.398438 157.890625 C 130.398438 157.890625 131.878906 161.082031 128.046875 159.882812 C 124.210938 158.683594 111.695312 156.753906 111.695312 156.753906 Z M 112.3125 151.984375 "/>
<path style=" stroke:none;fill-rule:nonzero;fill:rgb(94.117647%,94.117647%,94.117647%);fill-opacity:1;" d="M 27.304688 120.214844 C 28.273438 112.402344 33.105469 104.703125 40.539062 102.160156 C 37.605469 110.203125 37.609375 119.027344 40.539062 127.066406 C 41.683594 130.164062 43.273438 133.492188 42.199219 136.613281 C 41.53125 138.554688 39.898438 140.039062 38.070312 140.96875 C 36.238281 141.898438 34.210938 142.34375 32.207031 142.777344 L 31.8125 143.101562 C 28.632812 135.902344 26.335938 128.03125 27.304688 120.214844 Z M 27.304688 120.214844 "/>
<path style=" stroke:none;fill-rule:nonzero;fill:rgb(100%,100%,100%);fill-opacity:1;" d="M 40.613281 102.308594 C 36.285156 107.171875 33.59375 113.277344 32.921875 119.757812 C 32.753906 121.152344 32.804688 122.5625 33.074219 123.941406 C 33.378906 125.273438 34.035156 126.5 34.972656 127.492188 C 35.832031 128.4375 36.816406 129.300781 37.429688 130.4375 C 38.046875 131.621094 38.128906 133.015625 37.65625 134.265625 C 37.117188 135.820312 36.050781 137.089844 34.964844 138.292969 C 33.757812 139.628906 32.484375 140.996094 31.972656 142.769531 C 31.910156 142.984375 31.582031 142.875 31.644531 142.660156 C 32.535156 139.578125 35.519531 137.828125 36.945312 135.050781 C 37.609375 133.753906 37.886719 132.25 37.265625 130.882812 C 36.71875 129.6875 35.703125 128.792969 34.828125 127.847656 C 33.898438 126.890625 33.21875 125.722656 32.84375 124.445312 C 32.503906 123.085938 32.398438 121.679688 32.53125 120.285156 C 32.777344 117.140625 33.519531 114.054688 34.722656 111.140625 C 36.078125 107.808594 37.992188 104.734375 40.382812 102.046875 C 40.53125 101.882812 40.757812 102.144531 40.613281 102.308594 Z M 40.613281 102.308594 "/>
<path style=" stroke:none;fill-rule:nonzero;fill:rgb(100%,100%,100%);fill-opacity:1;" d="M 33.015625 117.660156 C 30.804688 117.121094 29.3125 115.058594 29.484375 112.785156 C 29.5 112.5625 29.847656 112.582031 29.828125 112.804688 C 29.664062 114.921875 31.0625 116.839844 33.125 117.328125 C 33.339844 117.382812 33.230469 117.710938 33.015625 117.660156 Z M 33.015625 117.660156 "/>
<path style=" stroke:none;fill-rule:nonzero;fill:rgb(100%,100%,100%);fill-opacity:1;" d="M 34.476562 127.070312 C 36.410156 125.914062 37.835938 124.070312 38.472656 121.90625 C 38.535156 121.691406 38.863281 121.800781 38.800781 122.015625 C 38.132812 124.265625 36.644531 126.183594 34.632812 127.382812 C 34.441406 127.496094 34.285156 127.183594 34.476562 127.070312 Z M 34.476562 127.070312 "/>
<path style=" stroke:none;fill-rule:nonzero;fill:rgb(100%,100%,100%);fill-opacity:1;" d="M 36.398438 108.136719 C 37.199219 108.519531 38.132812 108.472656 38.890625 108.011719 C 39.078125 107.894531 39.234375 108.207031 39.042969 108.320312 C 38.207031 108.824219 37.175781 108.878906 36.292969 108.46875 C 36.203125 108.433594 36.152344 108.339844 36.179688 108.25 C 36.210938 108.15625 36.308594 108.109375 36.398438 108.136719 Z M 36.398438 108.136719 "/>
<path style=" stroke:none;fill-rule:nonzero;fill:rgb(94.117647%,94.117647%,94.117647%);fill-opacity:1;" d="M 63.199219 116.117188 C 63.082031 116.191406 62.964844 116.269531 62.847656 116.347656 C 61.28125 117.378906 59.800781 118.539062 58.421875 119.808594 C 58.316406 119.90625 58.207031 120.007812 58.101562 120.105469 C 54.8125 123.207031 52.128906 126.890625 50.179688 130.976562 C 49.410156 132.601562 48.761719 134.28125 48.242188 136.007812 C 47.527344 138.386719 46.9375 141.027344 45.519531 142.972656 C 45.375 143.179688 45.21875 143.375 45.046875 143.558594 L 32.242188 143.558594 C 32.210938 143.546875 32.183594 143.535156 32.152344 143.519531 L 31.644531 143.542969 C 31.664062 143.453125 31.6875 143.359375 31.707031 143.265625 C 31.71875 143.214844 31.734375 143.160156 31.746094 143.109375 C 31.753906 143.074219 31.761719 143.039062 31.769531 143.007812 C 31.769531 142.996094 31.773438 142.984375 31.777344 142.972656 C 31.78125 142.941406 31.792969 142.914062 31.796875 142.882812 C 31.925781 142.359375 32.058594 141.835938 32.195312 141.308594 C 32.195312 141.308594 32.195312 141.308594 32.199219 141.304688 C 33.246094 137.3125 34.636719 133.375 36.582031 129.769531 C 36.640625 129.664062 36.699219 129.550781 36.761719 129.441406 C 37.648438 127.824219 38.660156 126.28125 39.796875 124.828125 C 40.421875 124.035156 41.085938 123.273438 41.789062 122.546875 C 43.601562 120.671875 45.699219 119.097656 48.003906 117.878906 C 52.597656 115.445312 57.914062 114.515625 62.824219 116 C 62.949219 116.039062 63.074219 116.074219 63.199219 116.117188 Z M 63.199219 116.117188 "/>
<path style=" stroke:none;fill-rule:nonzero;fill:rgb(100%,100%,100%);fill-opacity:1;" d="M 63.167969 116.28125 C 56.792969 117.550781 50.976562 120.800781 46.546875 125.574219 C 45.578125 126.582031 44.769531 127.738281 44.15625 129.003906 C 43.601562 130.25 43.386719 131.625 43.542969 132.984375 C 43.660156 134.253906 43.925781 135.539062 43.734375 136.816406 C 43.511719 138.136719 42.742188 139.296875 41.617188 140.011719 C 40.25 140.925781 38.636719 141.296875 37.046875 141.601562 C 35.28125 141.941406 33.441406 142.265625 31.96875 143.371094 C 31.792969 143.503906 31.59375 143.21875 31.773438 143.085938 C 34.335938 141.164062 37.769531 141.566406 40.574219 140.207031 C 41.882812 139.574219 43.007812 138.542969 43.332031 137.074219 C 43.617188 135.792969 43.34375 134.464844 43.210938 133.179688 C 43.042969 131.855469 43.199219 130.511719 43.671875 129.261719 C 44.214844 127.972656 44.976562 126.789062 45.921875 125.753906 C 48.007812 123.394531 50.449219 121.378906 53.160156 119.777344 C 56.246094 117.933594 59.621094 116.636719 63.140625 115.933594 C 63.359375 115.890625 63.386719 116.238281 63.167969 116.28125 Z M 63.167969 116.28125 "/>
<path style=" stroke:none;fill-rule:nonzero;fill:rgb(100%,100%,100%);fill-opacity:1;" d="M 47.882812 123.953125 C 46.441406 122.1875 46.488281 119.640625 47.988281 117.929688 C 48.136719 117.761719 48.402344 117.984375 48.253906 118.152344 C 46.851562 119.742188 46.816406 122.121094 48.167969 123.753906 C 48.308594 123.925781 48.023438 124.121094 47.882812 123.953125 Z M 47.882812 123.953125 "/>
<path style=" stroke:none;fill-rule:nonzero;fill:rgb(100%,100%,100%);fill-opacity:1;" d="M 43.398438 132.347656 C 45.632812 132.589844 47.882812 131.980469 49.6875 130.636719 C 49.867188 130.503906 50.0625 130.789062 49.886719 130.921875 C 48.003906 132.316406 45.664062 132.949219 43.335938 132.691406 C 43.113281 132.664062 43.175781 132.324219 43.398438 132.347656 Z M 43.398438 132.347656 "/>
<path style=" stroke:none;fill-rule:nonzero;fill:rgb(100%,100%,100%);fill-opacity:1;" d="M 56.304688 118.390625 C 56.714844 119.175781 57.488281 119.703125 58.367188 119.792969 C 58.589844 119.816406 58.527344 120.15625 58.304688 120.132812 C 57.335938 120.03125 56.480469 119.453125 56.019531 118.589844 C 55.96875 118.511719 55.988281 118.402344 56.0625 118.347656 C 56.140625 118.292969 56.25 118.3125 56.304688 118.390625 Z M 56.304688 118.390625 "/>
<path style=" stroke:none;fill-rule:nonzero;fill:rgb(94.117647%,94.117647%,94.117647%);fill-opacity:1;" d="M 130.585938 172 C 130.960938 168.972656 132.835938 165.988281 135.714844 165.003906 C 134.578125 168.121094 134.578125 171.539062 135.714844 174.65625 C 136.160156 175.855469 136.777344 177.144531 136.359375 178.355469 C 136.0625 179.105469 135.488281 179.707031 134.757812 180.042969 C 134.035156 180.375 133.269531 180.609375 132.488281 180.746094 L 132.335938 180.871094 C 131.101562 178.082031 130.210938 175.03125 130.585938 172 Z M 130.585938 172 "/>
<path style=" stroke:none;fill-rule:nonzero;fill:rgb(100%,100%,100%);fill-opacity:1;" d="M 135.746094 165.0625 C 134.066406 166.945312 133.023438 169.3125 132.765625 171.824219 C 132.699219 172.363281 132.71875 172.910156 132.824219 173.445312 C 132.941406 173.960938 133.195312 174.4375 133.558594 174.820312 C 133.921875 175.160156 134.242188 175.546875 134.511719 175.960938 C 134.75 176.421875 134.78125 176.960938 134.597656 177.445312 C 134.359375 178.03125 134.003906 178.5625 133.554688 179.007812 C 133.085938 179.523438 132.59375 180.054688 132.394531 180.742188 C 132.371094 180.824219 132.246094 180.78125 132.269531 180.699219 C 132.613281 179.503906 133.769531 178.828125 134.324219 177.75 C 134.609375 177.261719 134.65625 176.664062 134.445312 176.136719 C 134.195312 175.695312 133.878906 175.296875 133.503906 174.960938 C 133.144531 174.589844 132.878906 174.136719 132.734375 173.640625 C 132.601562 173.113281 132.5625 172.566406 132.613281 172.027344 C 132.707031 170.808594 132.996094 169.613281 133.460938 168.484375 C 133.988281 167.191406 134.730469 166 135.65625 164.960938 C 135.710938 164.894531 135.800781 164.996094 135.746094 165.0625 Z M 135.746094 165.0625 "/>
<path style=" stroke:none;fill-rule:nonzero;fill:rgb(100%,100%,100%);fill-opacity:1;" d="M 132.800781 171.011719 C 131.945312 170.800781 131.363281 170.003906 131.429688 169.121094 C 131.4375 169.035156 131.570312 169.042969 131.566406 169.128906 C 131.5 169.949219 132.042969 170.695312 132.84375 170.882812 C 132.925781 170.902344 132.882812 171.03125 132.800781 171.011719 Z M 132.800781 171.011719 "/>
<path style=" stroke:none;fill-rule:nonzero;fill:rgb(100%,100%,100%);fill-opacity:1;" d="M 133.367188 174.660156 C 134.113281 174.210938 134.667969 173.496094 134.914062 172.65625 C 134.9375 172.574219 135.066406 172.617188 135.042969 172.699219 C 134.785156 173.570312 134.207031 174.3125 133.425781 174.777344 C 133.351562 174.824219 133.292969 174.703125 133.367188 174.660156 Z M 133.367188 174.660156 "/>
<path style=" stroke:none;fill-rule:nonzero;fill:rgb(100%,100%,100%);fill-opacity:1;" d="M 134.113281 167.320312 C 134.421875 167.46875 134.785156 167.449219 135.078125 167.273438 C 135.148438 167.226562 135.210938 167.347656 135.136719 167.390625 C 134.8125 167.585938 134.414062 167.609375 134.070312 167.449219 C 134.035156 167.4375 134.015625 167.398438 134.027344 167.363281 C 134.039062 167.328125 134.078125 167.308594 134.113281 167.320312 Z M 134.113281 167.320312 "/>
<path style=" stroke:none;fill-rule:nonzero;fill:rgb(94.117647%,94.117647%,94.117647%);fill-opacity:1;" d="M 144.496094 170.414062 C 144.453125 170.441406 144.40625 170.472656 144.359375 170.503906 C 143.753906 170.902344 143.179688 171.351562 142.648438 171.84375 C 142.605469 171.882812 142.5625 171.921875 142.523438 171.957031 C 141.246094 173.160156 140.207031 174.589844 139.453125 176.171875 C 139.152344 176.800781 138.902344 177.453125 138.699219 178.121094 C 138.421875 179.042969 138.195312 180.066406 137.648438 180.820312 C 137.589844 180.902344 137.527344 180.976562 137.464844 181.046875 L 132.5 181.046875 C 132.488281 181.042969 132.476562 181.039062 132.464844 181.03125 L 132.269531 181.042969 C 132.277344 181.007812 132.285156 180.96875 132.292969 180.933594 C 132.296875 180.914062 132.304688 180.894531 132.308594 180.875 C 132.3125 180.859375 132.3125 180.847656 132.316406 180.832031 C 132.316406 180.828125 132.320312 180.824219 132.320312 180.820312 C 132.324219 180.808594 132.324219 180.796875 132.328125 180.785156 C 132.378906 180.582031 132.429688 180.378906 132.480469 180.175781 L 132.484375 180.175781 C 132.871094 178.621094 133.441406 177.121094 134.179688 175.703125 C 134.203125 175.664062 134.226562 175.621094 134.25 175.578125 C 134.59375 174.949219 134.988281 174.351562 135.429688 173.789062 C 135.671875 173.480469 135.925781 173.1875 136.199219 172.90625 C 136.902344 172.179688 137.714844 171.566406 138.609375 171.09375 C 140.390625 170.152344 142.449219 169.792969 144.351562 170.367188 C 144.402344 170.382812 144.449219 170.398438 144.496094 170.414062 Z M 144.496094 170.414062 "/>
<path style=" stroke:none;fill-rule:nonzero;fill:rgb(100%,100%,100%);fill-opacity:1;" d="M 144.484375 170.476562 C 142.015625 170.96875 139.761719 172.226562 138.042969 174.078125 C 137.667969 174.46875 137.355469 174.917969 137.117188 175.40625 C 136.902344 175.890625 136.820312 176.421875 136.878906 176.949219 C 136.964844 177.441406 136.988281 177.9375 136.953125 178.433594 C 136.867188 178.945312 136.570312 179.398438 136.132812 179.671875 C 135.589844 179.996094 134.988281 180.203125 134.363281 180.289062 C 133.679688 180.421875 132.964844 180.546875 132.394531 180.976562 C 132.324219 181.027344 132.25 180.917969 132.316406 180.863281 C 133.3125 180.121094 134.644531 180.277344 135.730469 179.75 C 136.253906 179.53125 136.648438 179.082031 136.796875 178.535156 C 136.863281 178.03125 136.847656 177.523438 136.75 177.027344 C 136.6875 176.511719 136.746094 175.992188 136.929688 175.507812 C 137.140625 175.007812 137.4375 174.546875 137.800781 174.148438 C 138.609375 173.234375 139.558594 172.453125 140.605469 171.832031 C 141.800781 171.117188 143.109375 170.613281 144.476562 170.34375 C 144.558594 170.324219 144.570312 170.460938 144.484375 170.476562 Z M 144.484375 170.476562 "/>
<path style=" stroke:none;fill-rule:nonzero;fill:rgb(100%,100%,100%);fill-opacity:1;" d="M 138.5625 173.449219 C 138.003906 172.765625 138.019531 171.777344 138.601562 171.113281 C 138.660156 171.050781 138.765625 171.136719 138.707031 171.203125 C 138.164062 171.816406 138.148438 172.738281 138.671875 173.371094 C 138.726562 173.4375 138.617188 173.515625 138.5625 173.449219 Z M 138.5625 173.449219 "/>
<path style=" stroke:none;fill-rule:nonzero;fill:rgb(100%,100%,100%);fill-opacity:1;" d="M 136.824219 176.703125 C 137.691406 176.796875 138.5625 176.5625 139.261719 176.039062 C 139.332031 175.988281 139.40625 176.097656 139.339844 176.152344 C 138.609375 176.691406 137.703125 176.9375 136.800781 176.835938 C 136.714844 176.828125 136.738281 176.695312 136.824219 176.703125 Z M 136.824219 176.703125 "/>
<path style=" stroke:none;fill-rule:nonzero;fill:rgb(100%,100%,100%);fill-opacity:1;" d="M 141.824219 171.292969 C 141.984375 171.597656 142.285156 171.804688 142.625 171.835938 C 142.710938 171.847656 142.6875 171.976562 142.601562 171.96875 C 142.226562 171.929688 141.894531 171.707031 141.714844 171.371094 C 141.695312 171.339844 141.703125 171.300781 141.730469 171.277344 C 141.761719 171.257812 141.804688 171.265625 141.824219 171.292969 Z M 141.824219 171.292969 "/>
<path style=" stroke:none;fill-rule:nonzero;fill:rgb(94.117647%,94.117647%,94.117647%);fill-opacity:1;" d="M 215.855469 107.679688 C 214.367188 95.667969 206.941406 83.835938 195.515625 79.929688 C 200.019531 92.289062 200.019531 105.851562 195.511719 118.210938 C 193.757812 122.972656 191.308594 128.082031 192.960938 132.882812 C 193.988281 135.867188 196.503906 138.152344 199.3125 139.578125 C 202.121094 141.007812 205.242188 141.6875 208.320312 142.355469 L 208.925781 142.859375 C 213.816406 131.792969 217.347656 119.6875 215.855469 107.679688 Z M 215.855469 107.679688 "/>
<path style=" stroke:none;fill-rule:nonzero;fill:rgb(100%,100%,100%);fill-opacity:1;" d="M 195.402344 80.15625 C 202.054688 87.628906 206.191406 97.015625 207.222656 106.976562 C 207.429688 109.113281 207.453125 111.296875 206.988281 113.402344 C 206.519531 115.453125 205.511719 117.339844 204.066406 118.863281 C 202.75 120.3125 201.238281 121.644531 200.296875 123.390625 C 199.300781 125.230469 199.265625 127.320312 199.945312 129.273438 C 200.777344 131.664062 202.414062 133.613281 204.082031 135.460938 C 205.9375 137.515625 207.894531 139.621094 208.679688 142.34375 C 208.777344 142.671875 209.28125 142.507812 209.1875 142.175781 C 207.816406 137.4375 203.226562 134.746094 201.039062 130.480469 C 200.019531 128.488281 199.589844 126.179688 200.546875 124.078125 C 201.386719 122.238281 202.945312 120.867188 204.289062 119.410156 C 205.703125 117.878906 206.785156 116.203125 207.34375 114.175781 C 207.914062 112.105469 207.976562 109.914062 207.824219 107.785156 C 207.441406 102.953125 206.304688 98.210938 204.453125 93.730469 C 202.371094 88.609375 199.429688 83.882812 195.753906 79.753906 C 195.527344 79.5 195.175781 79.902344 195.402344 80.15625 Z M 195.402344 80.15625 "/>
<path style=" stroke:none;fill-rule:nonzero;fill:rgb(100%,100%,100%);fill-opacity:1;" d="M 207.078125 103.75 C 210.472656 102.921875 212.773438 99.753906 212.507812 96.257812 C 212.480469 95.917969 211.949219 95.945312 211.976562 96.285156 C 212.230469 99.539062 210.078125 102.492188 206.910156 103.242188 C 206.578125 103.324219 206.746094 103.828125 207.078125 103.75 Z M 207.078125 103.75 "/>
<path style=" stroke:none;fill-rule:nonzero;fill:rgb(100%,100%,100%);fill-opacity:1;" d="M 204.832031 118.21875 C 201.863281 116.4375 199.667969 113.605469 198.691406 110.28125 C 198.59375 109.949219 198.089844 110.117188 198.1875 110.445312 C 199.210938 113.90625 201.5 116.851562 204.59375 118.691406 C 204.886719 118.867188 205.125 118.390625 204.832031 118.21875 Z M 204.832031 118.21875 "/>
<path style=" stroke:none;fill-rule:nonzero;fill:rgb(100%,100%,100%);fill-opacity:1;" d="M 201.878906 89.113281 C 200.648438 89.699219 199.210938 89.625 198.050781 88.921875 C 197.757812 88.742188 197.519531 89.21875 197.8125 89.398438 C 199.097656 90.171875 200.683594 90.253906 202.042969 89.621094 C 202.179688 89.570312 202.253906 89.425781 202.214844 89.285156 C 202.167969 89.144531 202.015625 89.070312 201.878906 89.113281 Z M 201.878906 89.113281 "/>
<path style=" stroke:none;fill-rule:nonzero;fill:rgb(94.117647%,94.117647%,94.117647%);fill-opacity:1;" d="M 160.6875 101.378906 C 160.867188 101.496094 161.046875 101.613281 161.226562 101.734375 C 163.632812 103.320312 165.90625 105.101562 168.023438 107.054688 C 168.191406 107.203125 168.355469 107.355469 168.519531 107.511719 C 173.574219 112.277344 177.703125 117.941406 180.695312 124.214844 C 181.882812 126.714844 182.878906 129.300781 183.675781 131.949219 C 184.777344 135.609375 185.679688 139.664062 187.855469 142.660156 C 188.082031 142.972656 188.324219 143.273438 188.585938 143.558594 L 208.269531 143.558594 C 208.3125 143.539062 208.359375 143.519531 208.402344 143.496094 L 209.1875 143.53125 C 209.15625 143.394531 209.121094 143.25 209.089844 143.109375 C 209.070312 143.027344 209.050781 142.949219 209.03125 142.867188 C 209.019531 142.8125 209.003906 142.757812 208.996094 142.707031 C 208.992188 142.691406 208.984375 142.671875 208.980469 142.660156 C 208.972656 142.609375 208.960938 142.566406 208.949219 142.519531 C 208.753906 141.714844 208.550781 140.910156 208.339844 140.101562 C 208.339844 140.097656 208.339844 140.097656 208.335938 140.09375 C 206.722656 133.957031 204.585938 127.902344 201.597656 122.367188 C 201.507812 122.199219 201.417969 122.027344 201.320312 121.863281 C 199.960938 119.375 198.398438 117 196.652344 114.765625 C 195.695312 113.546875 194.671875 112.375 193.597656 111.261719 C 190.804688 108.378906 187.582031 105.960938 184.039062 104.085938 C 176.980469 100.347656 168.804688 98.917969 161.261719 101.199219 C 161.070312 101.257812 160.878906 101.316406 160.6875 101.378906 Z M 160.6875 101.378906 "/>
<path style=" stroke:none;fill-rule:nonzero;fill:rgb(100%,100%,100%);fill-opacity:1;" d="M 160.730469 101.628906 C 170.53125 103.582031 179.472656 108.578125 186.277344 115.914062 C 187.726562 117.492188 189.058594 119.222656 189.953125 121.183594 C 190.808594 123.101562 191.136719 125.21875 190.898438 127.304688 C 190.71875 129.257812 190.308594 131.234375 190.605469 133.195312 C 190.917969 135.265625 192.144531 136.957031 193.859375 138.105469 C 195.960938 139.511719 198.4375 140.078125 200.882812 140.550781 C 203.59375 141.070312 206.421875 141.570312 208.6875 143.269531 C 208.960938 143.476562 209.261719 143.035156 208.988281 142.832031 C 205.050781 139.875 199.769531 140.496094 195.460938 138.410156 C 193.449219 137.433594 191.71875 135.847656 191.21875 133.59375 C 190.785156 131.621094 191.207031 129.582031 191.40625 127.605469 C 191.613281 125.53125 191.472656 123.539062 190.703125 121.585938 C 189.914062 119.585938 188.644531 117.800781 187.242188 116.191406 C 184.035156 112.5625 180.28125 109.464844 176.113281 107.007812 C 171.375 104.175781 166.183594 102.175781 160.773438 101.097656 C 160.4375 101.03125 160.398438 101.5625 160.730469 101.628906 Z M 160.730469 101.628906 "/>
<path style=" stroke:none;fill-rule:nonzero;fill:rgb(100%,100%,100%);fill-opacity:1;" d="M 184.226562 113.421875 C 186.441406 110.710938 186.371094 106.792969 184.0625 104.164062 C 183.835938 103.90625 183.425781 104.25 183.652344 104.507812 C 185.808594 106.949219 185.867188 110.605469 183.789062 113.117188 C 183.570312 113.382812 184.007812 113.683594 184.226562 113.421875 Z M 184.226562 113.421875 "/>
<path style=" stroke:none;fill-rule:nonzero;fill:rgb(100%,100%,100%);fill-opacity:1;" d="M 191.121094 126.328125 C 187.683594 126.703125 184.230469 125.761719 181.453125 123.695312 C 181.175781 123.492188 180.875 123.929688 181.148438 124.132812 C 184.042969 126.277344 187.636719 127.25 191.214844 126.851562 C 191.558594 126.816406 191.460938 126.289062 191.121094 126.328125 Z M 191.121094 126.328125 "/>
<path style=" stroke:none;fill-rule:nonzero;fill:rgb(100%,100%,100%);fill-opacity:1;" d="M 171.28125 104.875 C 170.652344 106.082031 169.460938 106.890625 168.109375 107.027344 C 167.769531 107.0625 167.867188 107.585938 168.207031 107.554688 C 169.699219 107.394531 171.015625 106.503906 171.71875 105.179688 C 171.800781 105.058594 171.769531 104.894531 171.652344 104.808594 C 171.53125 104.726562 171.367188 104.753906 171.28125 104.875 Z M 171.28125 104.875 "/>
<path style=" stroke:none;fill-rule:nonzero;fill:rgb(79.215686%,79.215686%,79.215686%);fill-opacity:1;" d="M 238.804688 143.851562 L 0.292969 143.851562 C 0.128906 143.851562 0 143.722656 0 143.558594 C 0 143.398438 0.128906 143.265625 0.292969 143.265625 L 238.707031 143.265625 C 238.871094 143.265625 239 143.398438 239 143.558594 C 239 143.722656 238.964844 143.851562 238.804688 143.851562 Z M 238.804688 143.851562 "/>
<path style=" stroke:none;fill-rule:nonzero;fill:rgb(79.215686%,79.215686%,79.215686%);fill-opacity:1;" d="M 83.65625 169.625 L 30.96875 169.625 C 30.808594 169.625 30.679688 169.496094 30.679688 169.332031 C 30.679688 169.171875 30.808594 169.039062 30.96875 169.039062 L 83.5625 169.039062 C 83.722656 169.039062 83.855469 169.171875 83.855469 169.332031 C 83.855469 169.496094 83.820312 169.625 83.65625 169.625 Z M 83.65625 169.625 "/>
<path style=" stroke:none;fill-rule:nonzero;fill:rgb(79.215686%,79.215686%,79.215686%);fill-opacity:1;" d="M 166.34375 181.046875 L 113.65625 181.046875 C 113.496094 181.046875 113.363281 180.917969 113.363281 180.753906 C 113.363281 180.59375 113.496094 180.460938 113.65625 180.460938 L 166.25 180.460938 C 166.410156 180.460938 166.539062 180.59375 166.539062 180.753906 C 166.539062 180.917969 166.503906 181.046875 166.34375 181.046875 Z M 166.34375 181.046875 "/>
<path style=" stroke:none;fill-rule:nonzero;fill:rgb(79.215686%,79.215686%,79.215686%);fill-opacity:1;" d="M 216.011719 169.332031 L 163.328125 169.332031 C 163.164062 169.332031 163.035156 169.203125 163.035156 169.039062 C 163.035156 168.878906 163.164062 168.746094 163.328125 168.746094 L 215.917969 168.746094 C 216.078125 168.746094 216.210938 168.878906 216.210938 169.039062 C 216.210938 169.203125 216.175781 169.332031 216.011719 169.332031 Z M 216.011719 169.332031 "/>
<path style=" stroke:none;fill-rule:nonzero;fill:rgb(18.431373%,18.039216%,25.490196%);fill-opacity:1;" d="M 97.371094 158.203125 C 94.097656 158.203125 91.101562 157.890625 88.71875 157.144531 C 85.890625 156.261719 84.113281 154.835938 83.4375 152.898438 C 82.792969 151.222656 83.089844 149.332031 84.222656 147.9375 C 88.40625 142.472656 102.933594 140.929688 104.882812 140.746094 L 108.835938 133.242188 C 109.089844 131.449219 107.894531 130.09375 109.960938 130.058594 L 134.425781 129.726562 C 136.457031 129.683594 135.882812 130.945312 136.230469 132.691406 L 139.957031 139.363281 L 123.914062 146.148438 L 126.339844 152.074219 L 126.179688 152.164062 C 121.484375 154.894531 107.984375 158.203125 97.371094 158.203125 Z M 97.371094 158.203125 "/>
<path style=" stroke:none;fill-rule:nonzero;fill:rgb(18.431373%,18.039216%,25.490196%);fill-opacity:1;" d="M 137.734375 139.644531 C 137.734375 139.644531 160.140625 137.074219 158.679688 147.355469 C 157.21875 157.636719 140.171875 164.917969 114.355469 147.355469 L 117.28125 142.214844 C 117.28125 142.214844 126.898438 141.738281 132.742188 139.167969 Z M 137.734375 139.644531 "/>
<path style=" stroke:none;fill-rule:nonzero;fill:rgb(99.607843%,72.156863%,72.156863%);fill-opacity:1;" d="M 106.015625 93.074219 C 106.015625 93.074219 101.757812 92.296875 100.597656 98.894531 C 99.4375 105.488281 97.574219 121.117188 97.574219 121.117188 L 91.800781 141.1875 C 89.90625 142.195312 89.117188 144.507812 90.003906 146.46875 C 90.886719 148.425781 93.140625 149.359375 95.144531 148.597656 C 97.152344 147.835938 98.222656 145.640625 97.589844 143.585938 L 105.316406 122.28125 L 106.792969 103.9375 L 106.792969 94.328125 C 106.792969 93.796875 106.492188 93.308594 106.015625 93.074219 Z M 106.015625 93.074219 "/>
<path style=" stroke:none;fill-rule:nonzero;fill:rgb(99.607843%,72.156863%,72.156863%);fill-opacity:1;" d="M 135.988281 93.074219 C 135.988281 93.074219 140.246094 92.296875 141.410156 98.894531 C 142.570312 105.488281 144.429688 121.117188 144.429688 121.117188 L 150.207031 141.1875 C 152.101562 142.195312 152.890625 144.507812 152.003906 146.46875 C 151.117188 148.425781 148.867188 149.359375 146.859375 148.597656 C 144.855469 147.835938 143.785156 145.640625 144.417969 143.585938 L 136.6875 122.28125 L 135.214844 103.9375 L 135.214844 94.328125 C 135.214844 93.796875 135.515625 93.308594 135.988281 93.074219 Z M 135.988281 93.074219 "/>
<path style=" stroke:none;fill-rule:nonzero;fill:rgb(75.686275%,88.627451%,47.843137%);fill-opacity:1;" d="M 135.664062 87.621094 L 127.609375 84.601562 L 112 84.398438 L 105.277344 87.621094 L 107.167969 98.492188 C 107.167969 98.492188 103.355469 104.960938 107.550781 111.429688 L 108.492188 134.480469 C 108.492188 134.480469 123.542969 143.230469 136.25 132.722656 L 133.378906 111.292969 C 133.378906 111.292969 138.179688 101.347656 134.457031 97.65625 Z M 135.664062 87.621094 "/>
<path style=" stroke:none;fill-rule:nonzero;fill:rgb(75.686275%,88.627451%,47.843137%);fill-opacity:1;" d="M 132.382812 91 L 135.664062 87.621094 C 135.664062 87.621094 142.824219 91.394531 142.675781 104.019531 L 133.644531 101.230469 Z M 132.382812 91 "/>
<path style=" stroke:none;fill-rule:nonzero;fill:rgb(75.686275%,88.627451%,47.843137%);fill-opacity:1;" d="M 108.921875 91 L 105.4375 87.503906 C 105.4375 87.503906 99.289062 92.273438 99.433594 104.898438 L 107.664062 101.230469 Z M 108.921875 91 "/>
<path style=" stroke:none;fill-rule:nonzero;fill:rgb(99.607843%,72.156863%,72.156863%);fill-opacity:1;" d="M 131.644531 149.488281 C 131.644531 149.488281 129.136719 144.195312 124.945312 146.734375 C 120.753906 149.269531 113.046875 153.484375 113.046875 153.484375 C 113.046875 153.484375 111.242188 156.503906 115.179688 155.710938 C 119.117188 154.914062 131.765625 154.296875 131.765625 154.296875 Z M 131.644531 149.488281 "/>
<path style=" stroke:none;fill-rule:nonzero;fill:rgb(18.431373%,18.039216%,25.490196%);fill-opacity:1;" d="M 124.675781 54.898438 C 124.710938 54.867188 124.746094 54.835938 124.78125 54.800781 C 127.023438 52.554688 127.476562 49.363281 125.796875 47.679688 C 124.207031 46.085938 121.28125 46.40625 119.070312 48.34375 C 117.175781 46.535156 114.636719 46.03125 112.992188 47.28125 C 111.097656 48.71875 111.113281 51.941406 113.027344 54.472656 C 113.15625 54.648438 113.292969 54.8125 113.4375 54.96875 C 108.21875 56.882812 104.75 61.859375 104.75 67.429688 L 104.75 80.058594 C 104.75 81.617188 106.007812 82.878906 107.5625 82.878906 L 130.847656 82.878906 C 132.347656 82.878906 133.566406 81.660156 133.566406 80.152344 L 133.566406 67.429688 C 133.566406 61.78125 129.996094 56.753906 124.675781 54.898438 Z M 124.675781 54.898438 "/>
<path style=" stroke:none;fill-rule:nonzero;fill:rgb(100%,71.372549%,71.372549%);fill-opacity:1;" d="M 127.339844 62.710938 C 131.652344 67.035156 131.652344 74.050781 127.339844 78.375 C 123.023438 82.699219 116.027344 82.699219 111.710938 78.375 C 107.398438 74.050781 107.398438 67.035156 111.710938 62.710938 C 116.027344 58.386719 123.023438 58.386719 127.339844 62.710938 Z M 127.339844 62.710938 "/>
<path style=" stroke:none;fill-rule:nonzero;fill:rgb(18.431373%,18.039216%,25.490196%);fill-opacity:1;" d="M 107.914062 63.578125 C 110.441406 65.320312 113.4375 66.25 116.503906 66.238281 C 115.410156 66.996094 114.164062 67.511719 112.851562 67.742188 C 116.929688 68.617188 121.144531 68.644531 125.230469 67.8125 C 126.140625 67.667969 127.015625 67.363281 127.820312 66.921875 C 128.632812 66.464844 129.214844 65.6875 129.421875 64.777344 C 129.691406 63.21875 128.484375 61.808594 127.226562 60.855469 C 123.332031 57.949219 118.339844 56.949219 113.628906 58.132812 C 112.113281 58.527344 110.589844 59.191406 109.601562 60.414062 C 108.617188 61.636719 108.324219 63.519531 109.265625 64.78125 Z M 107.914062 63.578125 "/>
<path style=" stroke:none;fill-rule:nonzero;fill:rgb(94.901961%,94.901961%,94.901961%);fill-opacity:1;" d="M 48.8125 41.472656 L 49.160156 41.003906 L 58.4375 47.902344 C 57.933594 46.359375 56.148438 41.476562 53.226562 39.53125 C 49.730469 37.203125 47.273438 37.925781 45.933594 39.949219 C 44.59375 41.96875 44.878906 44.519531 48.375 46.847656 C 51.335938 48.820312 56.613281 48.546875 58.152344 48.417969 Z M 48.8125 41.472656 "/>
<path style=" stroke:none;fill-rule:nonzero;fill:rgb(94.901961%,94.901961%,94.901961%);fill-opacity:1;" d="M 188.386719 3.710938 L 188.816406 4.109375 L 181.007812 12.636719 C 182.589844 12.296875 187.617188 11.023438 189.855469 8.3125 C 192.527344 5.070312 192.066406 2.542969 190.199219 0.996094 C 188.332031 -0.546875 185.769531 -0.527344 183.097656 2.714844 C 180.832031 5.460938 180.554688 10.75 180.523438 12.300781 Z M 188.386719 3.710938 "/>
<path style=" stroke:none;fill-rule:nonzero;fill:rgb(94.901961%,94.901961%,94.901961%);fill-opacity:1;" d="M 62.457031 94.796875 L 62.886719 95.191406 L 55.078125 103.722656 C 56.660156 103.382812 61.691406 102.109375 63.925781 99.398438 C 66.601562 96.15625 66.136719 93.628906 64.273438 92.082031 C 62.40625 90.539062 59.84375 90.558594 57.171875 93.800781 C 54.90625 96.546875 54.628906 101.835938 54.597656 103.386719 Z M 62.457031 94.796875 "/>
<path style=" stroke:none;fill-rule:nonzero;fill:rgb(94.901961%,94.901961%,94.901961%);fill-opacity:1;" d="M 128.484375 13.488281 L 128.988281 13.78125 L 123.203125 23.800781 C 124.671875 23.125 129.308594 20.792969 130.910156 17.660156 C 132.820312 13.914062 131.824219 11.550781 129.667969 10.445312 C 127.515625 9.339844 125.015625 9.914062 123.105469 13.660156 C 121.484375 16.832031 122.355469 22.058594 122.660156 23.574219 Z M 128.484375 13.488281 "/>
<path style=" stroke:none;fill-rule:nonzero;fill:rgb(94.901961%,94.901961%,94.901961%);fill-opacity:1;" d="M 182.535156 76.164062 L 183.042969 76.457031 L 177.257812 86.476562 C 178.726562 85.800781 183.363281 83.46875 184.960938 80.335938 C 186.871094 76.59375 185.875 74.226562 183.722656 73.121094 C 181.566406 72.015625 179.070312 72.589844 177.160156 76.335938 C 175.539062 79.507812 176.410156 84.734375 176.710938 86.25 Z M 182.535156 76.164062 "/>
</g>
</svg>
